<?xml version="1.0" encoding="utf-8"?>
<!-- Generator: Adobe Illustrator 26.0.1, SVG Export Plug-In . SVG Version: 6.00 Build 0)  -->
<svg version="1.1" id="b" xmlns="http://www.w3.org/2000/svg" xmlns:xlink="http://www.w3.org/1999/xlink" x="0px" y="0px"
	 viewBox="0 0 7135.5 1715.2" style="enable-background:new 0 0 7135.5 1715.2;" xml:space="preserve">
<style type="text/css">
	.st0{fill-rule:evenodd;clip-rule:evenodd;fill:#FFFFFF;}
	.st1{fill:#FFFFFF;}
</style>
<g id="c">
	<g>
		<g>
			<path class="st0" d="M663.6,75.6l2.5-40.9l-30.3,24.1L597,45.7L611.7,83l-26.9,36.2L623,115l25.5,37.3l6.8-42l41.1-9.5
				L663.6,75.6L663.6,75.6z M705.7,0h-6.9C757,8.4,801.6,63.5,801.6,127c0,70.3-53.3,127-118.4,127s-118.4-56.7-118.4-127
				c0-10.5,1.5-20.4,3.4-31c-8.3,19.4-13.2,43.1-13.2,65.6c0,89.2,68,161.7,150.7,161.7s150.7-72.4,150.7-161.7S788.4,0,705.7,0z
				 M1398.1,780.6c-2-1.1-2.5-2.1-2.9-4.2l-17.1-7.9c-2-14.2,4.9-33.1-6.4-45.1l-24.9,25.2l-15.2-18.9c6.4-5.8,11.8-13.1,16.6-21
				c12.7-24.1,17.6-54.1,23.5-81.9c-0.5-1.6-1.9-1.6-2.5-3.7l5.9-15.7c1,0-2.5-3.7-2-2.1c-1.5,0-2.5,0-4.9,0.5
				c-7.8-4.2-16.1-16.8-28.9-19.9c0-4.2,4.4-6.3,7.4-8.4c12.2-11.6,14.2-26.3,17.6-42.5c0-0.5-0.5-1.6-3-1.6
				c-6.4,10.5-23.5,12-34.2,19.4c-1,0-2.5,0-3.4-1.6l-10.3-44.1c-14.2,17.8-19.6,47.8-17.1,71.9c1.5,4.2,2.9,7.9,3.9,10.5
				c0,3.2,4.4,3.2,5.9,7.4l-18.6,33.6c-0.5,0-1.5,1-2.5,0c-24.5-63.5,25.4-129.7,7.8-194.8c2.9-4.2,8.8-5.8,13.7-8.4l-27.4-25.2
				c-0.5-0.5-1-1-1-3.1l5.4-5.3l14.2-22.6c-1.5-2.1,0,0-2-3.2l-36.2,4.7l-14.7-27.8c-1.4,0-2.5,0-3.4,1.6c-3.4,8.4-8.3,19.4-6.3,31
				c-2.5,7.4-10.3,0-14.7,1.6c-19.1-15.2-27.4-38.9-45-54.1c-3-2.1-3.4,0-6.4,2.1c-3.9-0.5-3.9-4.7-6.4-6.8c-1.5-1.1-2.9-1.1-4.9,0
				l-3.4,29.4c-5.4-6.3-1.5-15.2-5.4-23.1c0-6.3,0-11,2.5-16.3l12.2-9.5l6.4-21.5c-4.4-3.7-8.8,6.3-15.7,2.6l-5.4-22.6
				c0-0.5-1.5-1.6-2.9-2.1l-8.8,9.5l-4.9,8.9c-3.4,3.7-5.4-3.2-9.3-2.1c-5.4,6.3-3,16.8-0.5,24.7c16.6,14.7,26.4,39.4,26.4,63.5
				l-22.5-21.5c-6.9-11.6-8.8-28.3-11.8-43.1c-5.4-10.5-8.8-21-18.1-28.3c-1.4,0-2,0-2.9,1l-0.5,27.3c-4.9,0-8.8-4.2-10.8-9.5
				c0.5-17.8,2-39.4-12.2-47.7c-1,0-1.5,0-2.9,0.5l-10.3,18.4l-24.9-1.6c0,0.5-1,2.1-1.5,3.7l12.2,23.1l-9.3,12.6l-6.8,5.2
				c0,0.5,0,2.1,0.5,3.7c9.8,5.8,24,7.9,33.3,1.6c4.4-4.7,9.8-4.7,14.2-6.8c13.2,4.2,25.9,15.2,31.3,27.8
				c-12.7,2.6-29.8-7.3-40.6-14.2c-0.5,0-2,0-3,1c10.3,21,29.4,39.9,50.4,50.4c1.9,0,3.4,0.5,3.4,0.5v2.1l-11.7,1.1
				c-3,0-2,4.7-1,6.8c2,2.6,2.5,3.7,2.5,5.3v3.7c-1.4,1.6-4.4,3.7-7.8,3.7l-8.3,5.8c-1.5,1.6-3.4,5.8-3,10.5l7.8,7.4l9.8,4.7
				l-4.4,21.5c0,1.1,0.5,2.6,3.4,3.2l21-5.8c5.4,3.2,9.3,8.4,12.2,14.7c0.5,1.1,1.5,1.6,2.5,2.1c22.5,44.6,71,74.5,100.8,112.3
				l23.5,33.6c0,0.5-0.5,1.6-2.5,1.6c-27.4-36.7-59.7-59.8-92-80.3c-2.4,16.8,13.2,31.5,21.1,45.1c13.2,11.6,25.4,25.7,36.7,33.6
				c-2.9,5.8-9.3,5.8-14.7,11.6c-8.8-11.6-14.2-26.8-29.9-32c-1,0-2,0-3.4,1l4.9,39.4l-39.6,12.1c-0.5,1-2.9,1.6-2,3.7
				c9.3,11.6,22.5,18.4,38.7,19.9l-13.7,38.3c0,1.1,0,3.7,2,4.7l37.7-21.5c2.5,2.1,3.4,5.8,6.9,8.9c6.9,1.6,12.2,7.3,14.7,15.2
				c1,0,1.5,1.1,3.4,1.6c6.4-3.1,7.3-13.1,8.3-21c0.5-2.6,0.5-3.7,3.4-3.2c2.5,2.1,7.4,6.8,7.4,11.6c-1.5,2.1-3.9,1.6-5.9,2.1
				c-1,0-1.5,1.6-1.5,3.1c4.9,21,18.1,39.4,35.3,53c0.5,14.2,10.3,29.4,5.4,42.5c-19.1-22.6-43.6-53-66.6-79.3
				c-2.9-4.7-2.9-7.4-5.4-8.9c-1.5,0-2.9,0.5-2.9,1.6c13.7,64.6,73.4,97.7,74.4,174.3c-4.4,16.8-9.8,29.4-19.1,43
				c-10.8,16.8-15.2,36.2-24.5,55.6l-3.4-13.1c8.8-18.4,18.1-36.7,14.7-58.8c-0.5-1.1-1-2.6-2.9-3.7l-16.6,11
				c-2.5-3.7-3.9-9.5-2.5-14.2l45.5-21c0-0.5,0.5-1.6,1-3.7c0-1.1-0.5-2.1-1-3.7c-12.2-11.6-30.8-1-46.5-5.8c-4.4-3.7,3.4-10,1-15.2
				c-1.4-2.6-4.9,0-7.8-0.5c-5.4-12.1,2.5-27.8,8.3-36.8c5.4-3.7,3.9-7.9,8.3-9.4c7.8,16.8,1,36.7-4.9,54c0,0.5,0,2.1,2,2.1
				c10.3-8.9,9.8-26.8,12.2-40.9c-2-11.6,0-23.6-5.9-31c-1,0-2.5,0-3.4,0.5l-23.5,33.1c-7.3-14.7-16.6-29.9-32.3-38.3
				c-1.4-2.1-2-3.7-3.4-4.2c-1.4-0.5-3.9-0.5-6.4,0.5l13.7,69.3l-42.1,4.7c0,0-0.5,0.5-1.5,2.1c5.4,12.1,20.1,23.1,31.3,31.5
				c1.9,0,6.3,0.5,6.9,3.7c-5.4,7.3-4.9,19.4-11.8,26.2c0,8.9,1,17.3,3,24.7l25.9,60.4l-19.1,31l-31.3-35.7c-0.5,0-1.9,0-3.4,0.5
				l2,48.3c0,2.1-0.5,4.2-2,5.8l-33.8,13.7c5.4,11.6,20.1,16.8,32.3,22.6l-22.5,39.4c0,1-0.5,1-2.5,1.6c-4.9-3.2-6.8-7.4-13.2-12.6
				c-2.9-3.7-2-9.5-4.4-11.6c-1.4,0-2.9,0-3.4,1.6c-6.8,18.4-12.2,41-2,59.8c5.4,5.3,6.9,7.9,8.8,12.1
				c-6.4,29.4-19.1,56.2-36.7,74.5c-1.5,1.6-3.4,1.6-3.4,1.6c-1,0-1.9,0-2.9-1.6l-7.8-12.1c7.8-13.1,26.4-22,30.3-41
				c1.5-1.6,3.4-3.7,3.4-3.7s0-2.1-0.5-3.7l-47,8.9l-13.2-49.3c-0.5-0.5-2.4-0.5-3.4,0l-18.1,38.8c-3.9,7.9-15.7-1.6-23-2.1
				c-6.8-3.2-11.3-7.9-16.6-11.6c-1,0-2,0-2.4,1.1c-1.5,14.7-1,31.5,5.8,46.2c-44,22.6-68,66.1-89.5,115
				c-8.8,9.4-20.6,12.1-25.9,22.5c-2,3.2-6.9,1.6-9.3,0l-38.2,12.1c-0.5,0-1.5-1.1-1.5-3.2l14.2-12.1c11.3-3.2,26,2.1,34.2-7.4
				c5.4-5.8,10.3-11,12.3-18.9c0-1.6-1-4.7-1.5-5.3l-17.1,1.6c-3.9,0-1.9-5.2-0.5-7.3c2.5-3.7,3.4-5.8,5.8-9
				c20.6,0,34.8-14.7,45.5-29.9c3.4-10,6.9-15.7,12.2-24.7c0-1.6-1-3.2-2.9-3.7l-34.7,13.6l-15.2-50.4c-1.5-0.5-2.5-0.5-4.9,0
				l-14.7,47.8c0,4.2-4.9,3.7-8.3,2.6c-10.8-4.7-22.5-7.9-29.8-17.9c-1.5,0-2,0-2.5,0.5c-1,17.3,4.4,37.3,14.2,49.4
				c3.4,3.2,5.4,4.7,7.4,7.4c-3.9,11-17.6,21.5-10.3,35.7c1.5,3.2,3.4,3.7,3.9,6.8c0,5.8-5.4,9.5-9.3,13.1c-0.5,0-1.5,0-3-1.1
				c1-15.2-5.4-28.3-16.6-36.2c-14.2-6.3-29.8-7.4-36.2-22v-4.7c1.5-5.3,8.3-4.7,10.8-8.9c1-2.1,0-5.3-1-5.8l-23.5,6.3
				c-0.5,1.1-1,1.6-2,3.2v17.3c14.2,15.2,36.2,23.6,38.2,53.5c-2.9,17.8-14.2,24.7-22.5,35.7v-25.7c-2-13.1-3.4-27.8,4.9-37.3
				c0-0.5,0-1.6-1-2.6c-1-1.1-2.4,0-3.9-1.1l-13.7,12.1l-24.5,73.5c-8.3,1.6-14.2-10.5-20.5-16.3c-3.9-25.2-5.4-49.3-15.7-70.3
				c-1-1.6-3.4-2.6-5.9-3.7c-1.5,0-2.9,0.5-2.9,2.1c2.9,12.1,3.4,26.8-3.9,39.9c-0.5,6.9-1.9,11-1.4,16.3
				c-4.9,4.7-11.3-8.9-16.2-12.6c-6.9-10-6.4-22.6-3.4-33.6c8.3-16.8,28.4-14.7,33.8-33.6c2.9-8.4,4.9-21.5-2.5-27.3
				c-6.4-3.2-8.8-10-13.7-11c-0.5,0-2,0.5-2.9,1.1l4.9,14.7l-2.4,14.2c-13.7,22.6-52.4,30.4-45.5,68.2c-1,1.6-1,3.7-3.4,3.2
				l-14.7-18.4c8.3-14.7,2.9-31.5,5.9-48.3c0,0-1-0.5-3-1.1c0,0-1.9,0.5-2.9,0.5l-19.6,21c-3.9,0-5.4-5.8-5.4-9.4
				c0-2.1,1.5-5.8,1.5-5.8c3.4-5.8,9.3-9.5,13.7-14.7c20.1-13.1,24.9-36.2,27.9-58.8c0-2.1-1-3.2-3.4-3.7l-36.2,26.8l-19.6-54.1
				c-1,0-1.5-0.5-3.4-1.1c-1,0-2,0.5-2.9,1.1l-12.2,51.5c-9.3-3.2-23-11-34.8-6.8c4.4,11.6,15.7,17.9,19.1,29.9
				c9.8,12.6,18.6,24.7,32.8,28.3c3.4,1.6,8.3,5.8,9.3,11c0,1.6,0,3.2-0.5,5.3l-17.6,5.2c-0.5,0.5-2.9,1.1-2.9,3.7
				c6.4,11.5,15.2,21,29.3,22.6h13.7c3.4,2.1,5.9,6.8,8.8,10.5c-1.4,6.3-10.8-1.1-15.7-0.5c-36.2-8.9-55.3-37.8-66-71.4
				c-5.4-19.9-15.7-30.4-27.9-42.5c-21-7.4-32.3-22.6-49.4-34.1c0-2.6-2,0-0.5-2.6c7.3-11,18.1-22,19.6-37.3l-45.5,10
				c-6.4-14.7-13.7-31.5-26.4-43.6h-4.9l-4.9,43.6c-6.9,6.8-22.5,3.7-30.3,2.1c-3-1.1-4.9-2.1-5.4-2.6c-4.9,7.9,2.4,20.5,5.4,27.8
				c3.4,3.2,3.4,5.8,5.8,8.4l12.3,8.9l-7.4,12.1c-1,0-2,1.1-3.4,1.1c-1.5-1.1-2.9-3.2-3.9-6.8c-22-20.5-36.7-43.1-43.6-73.5
				c16.6-18.4,26.4-46.7,17.6-74.6c-1-1-3.4-2.1-6.4-1c0,7.3-3.4,11.5-7.4,17.3l-17.6,15.2c-0.5,0-2,0-3.4-1.6l-17.1-32
				c9.8-7.9,29.3-12.1,34.2-27.8v-3.2l-38.2-8.9c0.5-15.2,5.9-34.1-1.5-49.9c0-3.7-0.5-4.7-1.4-6.8c-0.5-1.6-3.4-2.6-5.4-1.6
				l-25,28.9c-5.4,0-6.9-7.9-11.7-10c-2-3.2-3.4-7.9-2.5-12.6c25-23.1,35.2-64,25.4-96.6c-2.5-8.4-6.4-12.1-9.8-17.8
				c0,0,0-1.6,0.5-2.1c9.3-1.6,18.6-4.7,24-13.2c3.9-7.3,5.4-14.2,5.8-21.5l-34.7-5.8c6.9-19.4,5.4-43.1,2.9-64.6
				c0-2.6-2.9-3.7-4.9-3.7L192.3,809L161,782.7c-3.9,21.5-2,50.4,7.8,70.3c-9.8,6.3-22.5,9.5-32.3,2.1c-2,0-3.4,0.5-3.4,3.7
				l11.7,18.4c8.8,3.1,17.6,11.5,29.4,10l-3.4,19.9l-20.6-11.6l0.5,33.6l-25-37.3c-12.2-57.2,16.2-106.6,47.5-143.3
				c14.2-18.4,30.8-34.6,29.3-60.9c-0.5-3.7-3.9-2.6-6.9-3.1c-1.4-3.7,1-6.8,3.4-9.5l19.6,15.2c4.9-0.5,6.4-9.5,7.8-13.7
				c1-8.4-1-16.3-2.5-23.6l18.1-11.5c1,0,3.9,1.6,5.9,0c2.9-2.1,2-7.4,0.5-11c-4.4-11-19.6-7.4-29.8-11c1.4-11.6,6.4-28.9,3.4-43.6
				c0-3.7-2.5-3.1-5.4-2.1l-31.3,28.4l-17.6-8.9c-0.5-0.5-1.5-1.1-1.5-3.7c27.4-21.5,62.1-42,73.4-82.9c0-1.6-0.5-2.6-3.4-3.7
				l-82.2,59.3c0,1.1-3.4-3.1-1-2.6c15.7-32.6,52.4-43.6,78.8-66.7h3.4l10.8-9.4c-3.9-7.4,9.3-23.6,12.2-36.8c2-2.6,2.5-5.8,3.9-8.4
				l15.7,1.1c4.9-1.1,0-7.4,1.5-11.6c8.8,3.1,17.1,5.8,26.4,2.1l1.5-0.5l-6.4-12.6c0-1.6,1-2.6,1.5-3.7l11.7-4.7
				c2-3.7,4.9-6.8,3.9-11L300,383.2l2-19.4c-15.7-2.1-30.8,8.9-41.1,19.4c-2.5,3.1-2.9,6.8-5.9,8.4l-21,12.1
				c1.5-13.6,19.6-24.6,31.3-35.7c29.4-15.2,58.2-24.6,75.4-55.1c0-1.6-0.5-3.1-1.5-3.1l-24.9,3.1l13.7-17.8
				c12.2,4.7,26.4,17.8,40.6,9.5c3.9-2.6,8.3-4.2,9.3-7.9c-1-6.3-9.8-5.3-12.2-12.6l11.7-26.8c0-2.1-1.4-2.1-3.4-2.6
				c-2,0-2.9,0-5.4,1.1l-21,3.7c-6.4-2.1-6.8-11.6-13.7-14.7c-8.3,10-14.2,22-16.1,38.3c2,3.7,2.5,4.7,2.5,8.4
				c-0.5,1-2.5,3.1-5.4,1.6l-5.4-28.3c-0.5-1.6-1.5-3.7-3.4-3.2c-1.5,1.1-3.4,3.7-3.4,6.8l-12.7,22c-2.9-4.7-1.5-11-1-16.8l-2.5-6.8
				c-2-1.6-3.9,1.6-5.4,3.1c-1.5,1.1-3.4,2.6-6.4,2.6c-3.9-2.1-3.4-12.1-7.8-16.8c-1-0.5-1.5-1.1-3.4-1.1l-13.2,21.5l-11.3-6.3
				c-2.4,0-2.9,1.1-3.4,3.7c2.4,11.6,1,26.8,11.3,33.6c5.4,4.2,10.2,8.4,10.2,15.8c-0.5,2.1-2,5.2-2,5.2c-3.9,1.6-6.4-5.2-8.3-8.9
				c0-1.6-0.5-2.6-1-5.2c0-1.1-3.4-2.1-5.9-1.1c-1,15.2-6.4,31-11.3,47.2c-2,12.6,0.5,22.6-1,33.6l-16.6,20.5
				c-5.4-33.6,21-65.1,20.1-100.3c0-0.5-0.5-1.1-2.5-1.1c-12.2,16.8-29.4,32-34.8,56.2c-2.9,2.6-7.3,0.5-11.7,2.1l-9.3-37.3
				c-0.5-0.5-2-1.6-3.4-1.6l-21,25.7l-28.4-10.5c-1,0-2.5,0-3.4,1c-4.4,12.1,0,26.8,7.8,36.2l-22.5,28.3c0,1.1,0,2.1,1.5,3.7
				c1,1,2.9,1,4.9,2.1c-7.3,63,14.2,127,16.2,192.6c-2,5.8,0,9.5-2.5,13.7c-1,1.1-1.9,1.1-3.4,1.1c-8.3-13.1-24-29.4-21-49.9
				c9.3-18.9,8.8-40.4,0.5-57.2c-3.9-3.7-4.9-7.4-5.9-10.5c-1,0-2.5-0.5-3.4-0.5c-1,0.5-1,1.6-2,2.1l-3,19.9
				c-4.9,2.6-6.9,9.5-8.8,15.7l-37.2-11c-2.5,1-3.4,1.6-4.4,3.7l22.5,41c-4.9,9.4-11.7,18.4-23,19.4c-9.8,25.7,2.5,54.1,12.2,77.7
				l28.4,45.7l-12.7,18.9l-31.3-22.5c-2,0-4.9,1-4.9,3.7l8.3,38.8L0,780.6c0,1.6,0,2.1,1.5,3.7L27.9,799c2,13.1-1.5,29.9-8.8,41.5
				l-14.2-2.6c-2,0-3.4,0.5-2.9,2.6l38.1,40.4c-15.6,17.3-16.1,48.3-3.9,70.9c7.3,7.9,10.3,14.2,17.6,17.3c1.5,0,3.4,0,4.9-1.6
				c-4.9-10-4.9-23.1-8.3-34.6c-1.5-12.1-2.9-22.6,0-32.6c21,13.1,30.3,40.4,48.9,56.2c17.1,22,32.8,31,47.5,48.3l-19.1,3.7
				c-11.3-11-19.1-28.4-39.2-29.9c-8.8-0.5-16.6-5.8-24.5-5.2c-1,0-1.5,1.6-2,3.1l22,29.9c-10.8,11-25.4,19.4-35.3,35.7
				c-3.9,2.6-8.8,5.8-9.3,10c0,1.6,0,3.2,1,3.2c13.7-3.2,28.9-3.2,43.1,0c3.4-0.5,5.9-0.5,8.3,0l4.4,32.5c1,1.1,2.4,1.1,3.4,1.6
				c4.9-3.7,4.4-11.5,8.3-15.7l11.8-8.9l7.8-15.2c1.4,0,2.9,0,3.4,1.6c27.4,63,97.4,80.8,134.1,139.1
				c-54.3-14.7-91-108.7-163.4-90.3c-12.2,13.6-20.1,38.3-14.2,60.4c4.9,22,17.1,32.5,34.2,40.9c11.3,4.2,19.1,9.5,27.9,15.8
				c1,0,3.9-0.5,4.4-2.1c1,0,1.4-1.6,2.5-2.6c-9.8-33.1-51.9-37.3-57.7-70.9c3.9-11,17.6-9.5,28.4-8.9c25,7.4,39.2,32,59.2,48.8
				c-6.4,12.6-10.3,24.2-8.8,39.4l-46.5,12.6c-0.5,0-0.5,1.6-1.4,2.6l29.4,27.3l-21.1,34.6c0,3.2,0.5,5.3,3.4,6.3l19.6-1.6l23.5-5.8
				c0.5,0,2,0.5,2.4,1l13.7,29.4h3.4l18.1-20.5l2-13.6l25.9-1.6c17.6,8.9,41.6,6.3,59.2-4.2c4.9-4.7,8.8-9.5,15.2-8.4
				c20.1,7.3,39.1,13.1,57.7,19.9v2.1l-72.9-3.2c-1.5,0-2,1.1-2.4,2.6c-1.5,1.1-1,4.2,1,5.8l59.2,21c0,2.1,1.9,0,0,3.2
				c-14.2,0.5-31.3,14.2-46,10.5c-9.8-15.7-29.4-25.2-49.9-26.2c-7.8,2.6-16.2,0-23,4.7c0,0.5-0.5,2.1-0.5,3.7l38.7,29.9
				c0,0.5,0.5,2.1,0,3.7c-26,5.8-33.3,29.4-50.9,44.1c-1.5,1.6-1.5,3.7-1.5,3.7c0,1.6,0.5,3.1,2.5,3.7l62.6-19.4l2,53
				c1.5,4.2,6.9,0.5,7.8-0.5c12.7-14.2,27.9-27.8,25.4-48.8c27.4,5.8,58.7,8.4,85.6-5.3c1,0.5,1.5,2.6,1.5,5.3
				c6.8,11.6,18.6,23.6,30.8,29.9c-6.9,12.1-10.8,32-9.8,47.2l28.9-16.3l16.1,32h3.4c3.9-13.1,13.7-24.7,12.7-39.9
				c6.4-7.4,19.1-3.1,27.9-3.1c5.4-10-4.4-19.4-10.3-27.3c-2.5-3.7-3.4-4.7-4.4-6.8c0-0.5,0-2.6,0.5-3.7l25.9-7.4l5.9,16.3
				c34.8,37.3,88.6-5.3,131.1,12.1l5.9,5.3c-19.1,16.3-43.6,33.1-69,45.2c0,0-0.5,1-1.5,3.1c0,0.5,1,2.1,1.5,2.6l23,2.6l9.3,6.8h1
				l1.4-0.5c1.5-14.7,10.3-26.8,22-32.5c9.3-6.8,18.1-11.1,26.4-19.4c21,4.7,35.2,22,50.4,39.4l9.3,6.3l23.5-6.3c0.5,0,1-1.1,2-2.6
				l-38.2-22c-1.5-1.6-1.5-2.6-3.4-4.7l-26.4-19.5c-1-0.5-1-2.1,0-3.7c43.6-8.4,99.9,27.3,138.5-10l8.3-0.5c1.5,0,2.4-1.1,3.4-3.7
				l-4.4-6.8c0-0.5,0-2.1,1-2.6c0.5,0,2-1.1,3.4-1.1l18.1,17.9v3.7l-24.9,23.1c-1,0.5-2,3.7-1,5.8c11.7,3.7,23.5,3.7,35.7,3.1
				l8.8,31c0,1.1,1.4,1.6,2.4,1.6l13.2-9.5l11.3-18.4c1-0.5,1.9-1,3.4-1l18.6,13.6c5.9-7.9,10.3-21,7.4-34.1
				c-1.5-4.7-3.4-5.3-3.4-10.5l27.4-29.9c26.5,9.4,58.2,27.3,84.2,8.9c6.9,12.6,9.3,29.9,24.4,35.2c5.4,0,7.4,4.2,11.3,2.1l6.9-42.5
				c17.6,1.6,39.7,15.2,59.2,4.7c1,0,1.5-1,1.5-3.2c0-0.5,0-2.1-1.5-3.1l-6.9-3.2c-8.8-11-15.7-31-31.3-36.2
				c5.9-11.5,22-21,23.5-38.3v-3.7c-21-0.5-48.4,6.3-64.1,22c-7.4,7.9-13.7,16.8-25.9,15.2c-11.3-5.3-20.1-4.7-30.4-11
				c0,0-1-1.6,0-3.2c21.5-4.2,40.1-13.7,57.7-23.6c2.5-2.6,3.9-3.2,5.9-4.7c1-1.6,1.5-2.6,0-5.3c-20.1,4.7-41.1,4.7-61.6-0.5
				c0-2.6-3,0,0-2.6c16.1-7.3,36.7-20,55.8-16.3c11.3,9.4,23.5,22,39.2,18.9c18.1-2.1,33.3-0.5,49.9-2.6l7.9,39.9
				c1,1.6,1.5,2.6,3.4,3.7c15.2-9.5,20.6-27.3,26.9-43.6l35.7,5.8l-5.9-33.1c0-0.5,0-2.1,1-3.7c12.2-3.7,22-13.7,30.8-24.7
				c1.5-1.6,0.5-4.2-1.5-5.8c-17.1,2.1-34.8-12.6-52.4-3.2h-3.4l-3.9-45.7c-0.5-3.2-0.5-5.3-3-5.8c-0.5,0-2-1-3.4-1
				c-4.4,12.1-10.8,22-16.6,31.5c-1.5,5.8-2,11.5-4.9,16.3l-33.3-10.5c20.5-22,48.9-35.2,71.9-56.2c22-13.1,45.5-34.1,74.4-29.9
				c2,1.6,3.4,3.7,4.4,8.4c-11.3,28.3-51.4,26.8-52.8,66.7c0,1.6,0.5,3.7,0.5,3.7c0,1,1.5,1,2.9,1.6c17.1-13.7,48.5-13.7,54.8-41
				c4.9-10,1.5-20.5,4.9-29.9v-3.7l-8.3-26.2c-7.8-13.1-28.9-11.6-42.6-7.4c-32.8,10.5-52.4,33.6-79.8,47.8c-2.5-2.1-1-7.4-0.5-11.6
				c34.2-26.2,73.4-57.2,86.1-106.1c1.5,0,2.5,0,3,1.6c-1.9,24.1,14.2,37.8,27.9,56.1h3.9l6.9-31.5c6.9-2.1,16.6-2.1,24.5-5.8
				c7.3-0.5,9.8,5.3,15.2,5.3c4.4-14.7-7.8-26.2-13.7-38.9c-5.4-6.3-10.3-8.9-14.2-12.1l5.9-21.5c1.5-3.7,7.8-4.2,8.8-10
				c-0.5-3.2-3.4-5.8-6.9-7.4c-18.6,0-35.7,7.9-46.5,23.1c-3.4,5.8-9.8,12.6-14.7,15.7c-3.9,0-9.3,0.5-12.2-3.2
				c3.4-6.8,9.8-9.5,14.7-15.2c26.9-29.4,44.1-58.3,60.2-90.3c5.4-1.6,8.3,2.6,11.8,4.2c5.8,12.6,2.4,28.4-2,41
				c-2.9,7.9-6.4,12.1-9.8,17.3c0,0.5,0,2.1,1,3.2c1,1.1,2.5,0,4.4,0.5c15.2-8.9,22.5-24.2,27.9-43.6c2-16.3-5.4-31-12.2-40.9
				c14.2-10.5,25.4-27.8,31.3-49.4c0-0.5-1.5-1.1-2.5-1.1l-8.3,6.3c-1.5,0-2,0-3-1.6l-3.4-35.7l27.4-12.1
				C1404.9,791.1,1401,784.3,1398.1,780.6L1398.1,780.6z M1042.3,301.9l-1.4-1.1c2-2.6,2-5.8,4.9-6.3c5.4-2.1,11.3-2.1,16.2,0.5
				L1042.3,301.9L1042.3,301.9z M1072.7,287.7l-19.1-6.3l-12.7-17.3c9.3,0,16.1,6.8,22.5,11.5c3.4-1.6,4.4-3.2,5.4-5.8
				c0,0-1-1.6-1.5-3.1c-1.5-5.8,0.5-12.1,4.9-13.1l2,37.3C1074.2,292.9,1072.7,287.7,1072.7,287.7L1072.7,287.7z M1172,644.7
				c-6.4-2.6-11.8-3.7-14.2-8.4l29.4-7.3c3.9,1.6,7.4,5.2,7.8,8.9c-0.5,2.1-0.5,4.2-3.4,5.2L1172,644.7L1172,644.7z M1202.3,660.4
				c-2.9,7.9-8.8,17.3-18.6,18.9c-2.5,1.1,1-3.7,0.5-6.3c4.9-7.4,5.4-18.9,14.2-20c1.5,1,2.9,1.6,3.4,1.6c1.5,2.1,0.5,0.5,1.5,2.1
				C1203.3,656.7,1203.3,658.8,1202.3,660.4L1202.3,660.4z M1203.3,628.9h-1c-3.9-2.6-7.3-7.9-10.8-12.1c0-8.9-7.3-18.4-2.5-24.1
				C1198.4,599,1203.8,616.8,1203.3,628.9z M1236.6,746c24,23.6,42.1,45.7,46,82.4L1236.6,746z M893.6,1267.8l-18.1,23.6l-1,0.5
				c0.5-1.1,0.5-3.7,1-4.2c-0.5-4.2-3.9-4.2-4.4-7.4C876.9,1274.1,885.7,1265.7,893.6,1267.8L893.6,1267.8z M853.9,1237.3
				c9.3,16.8,3.4,37.3,2,54.6l-1.5,1l-1.9-5.2l1.5-8.9c-3-4.2-7.4-2.6-9.3-5.8C844.6,1261,844.6,1245.2,853.9,1237.3L853.9,1237.3z
				 M826.1,1311.9c3.4,1.6,8.3,1.6,8.3,5.8l-1.4,1.6h-1.5C829,1317.2,826.1,1314.5,826.1,1311.9L826.1,1311.9z M843.2,1337.1
				c0.5,3.1,0,4.7-1,6.8l-9.3,2.1c-1.5-1.6-2,0.5-2-2.1c1.5-3.2,3.9-6.8,6.9-6.8H843.2L843.2,1337.1z M810.9,1284.1l-3.9-16.2
				c8.8-1.1,13.7,5.2,22.5,8.4c3.4,1.6,7.3,6.3,6.8,11.6c-3.9-1.6-8.8-3.2-11.7,0c-1.5,0.5-2,3.7-2,5.2c0.3,0.7,0.9,1.6,1.3,2.5
				l2.6,2.2l-2-1c-0.2-0.4-0.4-0.8-0.6-1.2L810.9,1284.1L810.9,1284.1z M817.7,1323.9c3.4,1.6,6.4,2.6,7.8,6.3
				c-2.5,4.2-4.4,6.8-7.8,10h-1C814.3,1334.5,813.3,1325.5,817.7,1323.9z M665.5,1291.4c0.5,9.5-3.9,15.2-10.3,20.5h-0.5
				L665.5,1291.4z M574.5,1267.8c5.4-9.5,13.7-16.3,23-18.9v3.2c-2.9,14.7-10.3,26.8-21,32l1.5-3.7c-1-2.1,0-3.7-1-5.3
				c-0.5-2.1-2.5-2.1-3.4-3.7C573.5,1271.5,573.5,1270.4,574.5,1267.8L574.5,1267.8z M536.3,1284.1l-2,1.6l-17.1-27.8
				c2,0.5,3,0.5,6.4,2.1c7.8,3.7,13.2,11.6,14.2,20.5C536.8,1282.5,536.8,1283.5,536.3,1284.1z M553.5,1265.2c-2-0.5-3.4-0.5-4.9,0
				c-1.5,1.6-2.9,2.1-2.9,2.1c-5.9-13.6-2.5-30.5,3.4-42c12.2,17.3,9.8,39.4,13.7,58.8l-1.5,1.6l-1,1.6L553.5,1265.2L553.5,1265.2z
				 M564.7,1342.3c-4.4-1.6-8.8-3.7-11.3-7.3c0.5-1.6,1-2.1,1-2.1c4.4-2.1,9.3-0.5,11.3,2.1l3.9,7.3H564.7L564.7,1342.3z
				 M586.8,1338.7l-1,1.6l-0.5,0.5c-3.4-2.6-6.9-5.8-7.3-9.5c-1-2.6,1-6.3,3.9-10c1.5-2.1,3.9-5.3,6.4-2.1L586.8,1338.7
				L586.8,1338.7z M263.3,401.1c0.5-12.6,9.3-17.8,18.1-23.6c2-2.6,9.8-4.7,10.3-1.6c0,0-0.5,1.6-1.5,3.7
				c-2.5,9.5-14.2,5.3-19.6,8.9c-1.5,2.1-0.5,5.3,0.5,6.8l23.5-1c2.9,2.1,10.8,4.7,7.8,7.9l-24.5-4.2c-2,1.1-3.9,3.7-2.5,6.8
				l15.7,8.4l2.4,8.4c-14.2,2.1-13.7-19.9-25.9-20.5c-0.5,0.5-1,3.7-1,4.7l2.4,20.4l-1.4,1.1c-0.5-1.1-1-1.1-2-1.1
				C264.3,418.4,262.3,410.5,263.3,401.1L263.3,401.1z M335.2,259.3l3.9,8.9c-0.5,2.6-2.4,7.4,0,8.9c1,0.5,3,0.5,3.4,0.5
				c2-1.6,3.4-5.3,7.4-8.9c3.4-4.7,9.8-7.9,15.2-4.7c1.5,6.3-4.9,12.1-9.3,15.2c-5.9,2.6-14.7-1.6-16.7,4.7c1,1.6,1,3.2,1.5,3.7
				l15.2,1.6c2.9,1.6,5.4,3.7,6.4,6.8c-1,3.7-5.9,2.1-7.8,2.1l-20.1-7.4c-1-3.2-1-5.3-2.9-6.8c-2.5-0.5-3.4-0.5-4.9-0.5L335.2,259.3
				L335.2,259.3z M304.4,284c0,2.6,1,3.7,1,7.4c0,14.2-6.4,23.6-15.7,31h-1.5L304.4,284L304.4,284z M294.6,332.3
				c7.8-5.2,18.1-13.1,25.4-7.3l-37.2,23.6l-0.5,0.5C284.8,342.8,290.2,338.1,294.6,332.3L294.6,332.3z M284.3,300.3
				c-6.4,16.8-3.4,36.2-16.6,46.7h-1v-20.5C268.7,315.5,274.6,303.4,284.3,300.3L284.3,300.3z M253.5,300.8
				c-5.4-2.6-7.8-9.4-6.9-15.7c4.9,2.1,4.9,7.9,8.3,9.4c3,0,4.9-2.1,5.9-3.1c1.5-4.2-0.5-7.4-0.5-10.5c2-1.6,2-8.4,4.9-5.2
				c0,3.7-1.5,9.5,1.5,12.1c1,1.1,2,1.6,3.4,1.6c3.9-1.6,3.9-4.2,6.4-5.8c1.5-0.5,2.9-0.5,2.9,0.5l-16.1,21.5l-2.5,1.6
				C258.9,304,256.9,301.9,253.5,300.8L253.5,300.8z M244.2,346.5c-1-3.1-1.9-7.4,0.5-8.9c1.5,7.4,4.9,12.1,3.5,21
				c-1.5,8.9-4.9,18.9-11.8,21l-1,1.1L244.2,346.5L244.2,346.5z M100.8,993.7l-4.4,6.8l-0.5,0.5l-8.8-5.3c-1.5-2.1-2.9-3.7-2.9-6.3
				L100.8,993.7L100.8,993.7z M85.2,1045.7h-6.4l-16.2-5.8c6.9-9.5,16.2-18.9,29.9-18.9c0,0.5-0.5,2.6-0.5,3.7c1,2.6,2,4.2,4.4,4.7
				l6.9-3.7L85.2,1045.7z M106.7,1062.5l-1.5,0.5c-3.4-4.2-5.4-13.7-0.5-16.8c3.4,1.6,6.4,3.7,8.8,1l6.4-16.3l1.9,7.3
				C117,1047.8,115,1058.8,106.7,1062.5z M131.1,1193.8h-1.4c-12.2-5.8-26.4-11-27.9-25.7L131.1,1193.8z M300,1115.6
				c3.4-0.5,5.4-5.8,7.8-2.6c1,14.2-5.4,26.2-14.2,34.1v0.5l-5.4-15.7C290.2,1125,295.6,1119.2,300,1115.6z M265.2,1114h-23
				c-1.5,1.6-2.5,2.6-2.5,3.7c1.5,5.8,8.3,5.8,9.8,11v1c-9.8-9.4-24.5-16.8-27.9-29.4c3.4-5.3,6.9-11.6,12.2-14.7l20.6,2.1
				L265.2,1114L265.2,1114z M225.1,1060.9c5.4-20.5,2.5-46.7,24.5-54.6c7.3,20.5-3.4,40.9-14.2,54.6c0,1.6,0.5,3.7,0.5,3.7
				c0.5,1.6,2,3.1,2.9,3.1h3.4l5.9-6.8c9.8-5.2,20.5-3.7,29.8,0v3.7l-19.6,11c-11.7-5.3-24-5.3-33.3,1.6h-1l-4.4-15.7L225.1,1060.9
				L225.1,1060.9z M218.8,1038.4l-2,16.3v0.5c-8.8-9.5-10.8-26.8-8.8-39.9L218.8,1038.4z M214.4,1085.6l-1,1.6
				c-1.5-2.1-2-3.1-3.9-5.2c-10.3-14.2-20.5-34.7-13.7-54.6L214.4,1085.6L214.4,1085.6z M185,1022.1c-3.9-32.6,21.5-55.1,41.6-74
				C223.2,981.7,187.4,991.1,185,1022.1z M246.2,853.1c-2.9,7.4-8.8,13.1-15.7,14.7l-6.9-2.6c-2.4-2.6,1.5-5.8,0.5-8.4
				c0-4.7-8.8-6.8-7.4-9.5L246.2,853.1z M218.3,790.1c5.4,15.8-1.5,35.7-8.3,48.3l-2.5-6.3c-1.5-1.1-2-1.6-3.4-1.6
				c-2.9,0.5-2.9,2.1-4.9,1.6C196.7,814.2,207.5,799,218.3,790.1z M210,867.8l-2,0.5c-1.5-2.1-3.4-2.1-3.4-3.7h5.4
				C210.9,865.1,210,866.7,210,867.8z M193.8,874.1l15.2,12.1c2,0,2.4-1.1,2.9-1.6c1.5-1.6,2.5-4.2,2.5-5.2l14.2,22.5h-4.9
				c-10.3-2.1-20.5-2.6-27.9-13.6C193.8,884,190.4,877.7,193.8,874.1L193.8,874.1z M195.7,904c-4.9,2.6-7.3,7.3-13.7,6.8h-1
				l5.8-16.8L195.7,904L195.7,904z M186.9,923.4c-2,4.2-3.9,7.9-7.3,9.5c-2,0-2-1.6-2-2.6c1-2.6,2-4.7,3.4-6.3
				C183,923.4,185.5,920.8,186.9,923.4L186.9,923.4z M164.4,875.6l-1.5,0.5c-2.9-3.7-9.8-2.6-9.8-7.4l18.1-1L164.4,875.6
				L164.4,875.6z M173.3,844.1l-5.4-42c1-1,2-1,2.9-1c0,0,2,1.6,3.4,3.1c7.8,8.4,12.7,24.7,10.8,36.2c-2-2.6,0-6.3-2.9-8.4
				c-0.5-1.1-1.9-1.6-2.5-1.6c-2,0.5-2.9,1.6-3.4,1.6c-2,2.6-2.9,7.9-2,10.5L173.3,844.1z M181.1,946.5c14.2-7.9,18.6-24.7,23-38.9
				l24.5,8.9c0.5,0.5,0.5,3.1,0.5,3.7c-9.3,30.5-39.1,41-49.4,68.8l-1.5,1.1l-3.9-34.7C176.2,951.8,179.6,950.7,181.1,946.5
				L181.1,946.5z M161,913.4c2,1.1,4.9,3.7,4.9,6.8l-0.5,18.4v0.5C162,930.2,156.6,920.3,161,913.4L161,913.4z M162.5,959.1
				c0-3.2-2-3.7-2.5-5.3c1-1.6,2-1.6,2.4,0C162.5,956,162.5,956.5,162.5,959.1L162.5,959.1z M218.3,674.6l-1.5,0.5l-16.1-16.3
				l-1.5-7.3c1.5-1.1,3.4-1.1,4.9-1.1c1.9,0.5,3.9,2.6,7.3,4.2C216.8,657.8,220.2,667.2,218.3,674.6L218.3,674.6z M235.9,632.1
				l-19.1,11c-3.4-1-5.8-2.1-5.8-5.2c0-2.1,0.5-2.6,1-3.7L235.9,632.1L235.9,632.1z M211.9,589c2.5,0,2.9,1.6,3.4,3.2l-9.8,27.3
				c-3.4,0-6.4-4.2-8.3-6.3C195.3,600.5,205.6,594.3,211.9,589z M197.2,628.9c2.5,1,2.5,3.1,3.4,5.2c-1,3.7-3.4,5.3-4.9,6.8
				c0,0-1.5,0.5-1.5,0.5c-2-1.6-2.5-3.2-3.4-5.3C194.3,635.2,194.3,631.5,197.2,628.9L197.2,628.9z M188.4,651.5
				c2.5,8.9,3.4,20.4-2.9,26.2c-2,1-3.4,1-4.4,1.6h-1.5c-1.5-11,0.5-20.5,5.9-27.8C188.4,649.4,186.5,651.5,188.4,651.5z M185,616.8
				c2.5,5.8-2,10-3.9,13.1l-1.5,0.5l-10.8-12.1l-1-12.6C175.2,604.2,181.6,609.5,185,616.8L185,616.8z M176.2,644.7
				c2-1.1,4.9-3.7,4.9,0c-4.9,6.8-13.2,12.1-22,12.1c-2.5-0.5-5.9-2.1-7.4-5.2c0.5-2.1,2-2.6,2.4-4.2L176.2,644.7L176.2,644.7z
				 M149.8,675.1l-2,0.5c-4.9-4.2-6.8-11.5-11.3-15.7h-3.4c-1,1.6-2.5,2.1-3.4,2.6c-3.4,2.1-0.5,9.4-4.4,8.9
				c3.4-24.2,5.4-45.2,23-62c1.9-2.1,5.9-9.5,8.3-3.7l5.9,26.8c-12.2,3.1-21.5,12.6-27.9,20.5l20.6,16.3
				C154.2,673,150.7,674.6,149.8,675.1L149.8,675.1z M153.2,702.9l-8.3,3.7c-3.9,0.5,0-3.7,0-3.7c1.9-1.6,5.4-3.7,8.3-3.1
				C153.7,701.3,153.2,702.9,153.2,702.9z M134.1,697.7l-1,1.6c-1-2.1-1-3.7-2-6.8c1.5-3.7,2-13.1,5.4-11
				C136,687.7,137.5,693.5,134.1,697.7L134.1,697.7z M161,677.7c2.9-0.5,3.4-2.6,6.4-2.6l1.5,11.6l-12.2,2.1c-2.5,1-2.5-1.1-2.5-1.1
				C156.6,683,159.1,680.4,161,677.7L161,677.7z M153.7,577.5c19.1-20,40.1-35.2,64.1-46.2c-18.6,32-49.9,37.3-71.4,63.5
				c-1.5,5.2-1,0-1.5,0L153.7,577.5L153.7,577.5z M174.7,426.3c4.9-2.1,10.3,0,10.8,4.7l-7.4,35.7L174.7,426.3L174.7,426.3z
				 M181.1,517.1c-1.5,1-1.5-1.1-1.5-1.6c12.7-22.6,36.7-40.4,59.7-47.7C225.1,491.4,201.1,506.1,181.1,517.1z M238.8,427.3
				c-1-1.6-1.5-3.2-2.4-3.7c-2.9-4.7-10.8,2.1-13.2,0l26.9-17.9c1.4,1,2.9,1.6,2.9,2.6l3.9,25.2l-5.8,9.5
				c-12.2,16.8-34.3,22.6-50.4,33.1C205.6,457.2,232,447.8,238.8,427.3L238.8,427.3z M216.8,342.8l-10.8,31l-3.4-10
				C206.5,355.9,210,343.9,216.8,342.8L216.8,342.8z M199.2,392.2V411l-5.4-15.2C196.7,393.7,197.2,392.7,199.2,392.2L199.2,392.2z
				 M190.4,460.9l6.8-3.7l8.3-12.6c2,0,4.4-4.2,5.4-1.6l-20.6,24.7l-1.4,1.6C188.9,466.7,188.9,463,190.4,460.9z M174.7,383.2
				l10.8-4.7c1.9,1,3.4,2.1,2.9,4.7l-12.2,5.2h-1.5C174.2,386.4,174.2,384.8,174.7,383.2z M184.5,404.8c2,2.6,3.9,7.4,2.4,11.6
				l-16.1-5.3c-1-2.6-5.4-11.6,0-13.1L184.5,404.8L184.5,404.8z M158.6,358.6c3.9-2.1,8.8-12.1,12.2-7.4c0.5,8.9,0,17.8-6.4,22.6
				c-3.9-2.1-9.3,0-10.3-4.7L158.6,358.6L158.6,358.6z M153.2,386.9c2.4-0.5,6.9-0.5,7.3,3.2c-0.5,2.6-2,3.7-2.9,5.8l-2,0.5
				c-1.9-0.5-2.4-1.1-3.9-2.6C150.7,391.6,150.7,388.5,153.2,386.9L153.2,386.9z M149.8,416.8c1-3.7,3.9-6.3,6.9-7.4
				c1,0,2.5,1,2.5,1.6c1.5,10.5-2,18.9-8.3,24.7h-1V416.8z M123.8,361.7c0.5-1,1.5-1.6,2.5-1.6c6.9,2.6,15.7,1.6,18.6,11
				c-0.5,2.6,0,7.9-2,10l-1.5,1.6l-1.4,0.5c-6.9-2.6-12.2-7.9-14.7-14.2L123.8,361.7L123.8,361.7z M125.3,401.1
				c3.4-5.3,7.8-8.4,14.2-6.8l4.9,10.5c-4.9,5.8-13.2,9.5-21,8.4c-2.5,1.1-3.4-2.1-3.4-3.7C120.9,405.8,122.3,404.8,125.3,401.1
				L125.3,401.1z M136,424.2l6.9,29.9c1.5,0.5,2,0.5,3.4,0.5l14.7-13.1c2,0,4.9,1,4.9,3.1c-0.5,18.4,1.5,35.7-3.4,53
				c-3.9,20.5-14.2,38.9-17.1,57.2l-0.5,0.5l-24.9-129.7L136,424.2L136,424.2z M118.9,509.7c0-14.2-2.5-31.5-2.5-45.2
				c0.5,4.7,2.5,9.5,3.9,16.3c6.9,29.9,17.1,63.5,12.7,95c-2.5-0.5-4.4-13.1-5.4-19.4C124.3,540.7,123.8,526.5,118.9,509.7
				L118.9,509.7z M122.3,712.4c1.5,2.6,0,5.8,0,8.4C121.9,718.7,120.9,714,122.3,712.4z M136.6,718.7c14.2,2.1,27.4-9.5,32.8-20.5
				c2-0.5,3.4-0.5,4.9-0.5l19.1-10c-5.9,17.3-23.5,30.5-35.7,45.7c-12.7,13.1-25,29.9-35.3,46.2
				C118.9,759.1,125.3,733.9,136.6,718.7L136.6,718.7z M174.7,730.2c-18.1,28.9-40.6,52.5-53.8,84
				C125.3,780.1,153.7,752.3,174.7,730.2z M85.7,540.2c3.9-1.6,4.9-6.8,8.3-6.8c3.4,11,3.4,22-1.5,31.5l-8.8-8.4
				C83.7,556.5,85.7,540.2,85.7,540.2z M82.2,602.7c3-1,8.3-4.2,10.3-0.5l19.1,37.3l-0.5,1.6l-34.8-33.1
				C77.3,607.4,78.8,606.3,82.2,602.7L82.2,602.7z M76.9,776.9l19.6-4.2c2.9,0.5,2.9,2.1,5.4,2.1c1.5,2.1,4.4,4.7,2.9,7.4l-22.5,9.5
				c-3.4-0.5-5.8-2.6-6.8-5.8C76.4,782.7,74.4,779.6,76.9,776.9L76.9,776.9z M109.6,796.9l-2.9,37.3l-0.5,0.5l-15.7-30.4
				C90.5,804.2,109.6,796.9,109.6,796.9z M90.5,635.2c0.5,0,3.4,3.1,5.9,4.7c10.3,11.6,17.1,32,13.7,48.8l-0.5,1.6L90.5,635.2
				L90.5,635.2z M47.5,547.5l23.5,11l2.4,7.9c-3.9,1.6-4.9,3.7-5.8,5.2l-1.5,0.5C55.3,568,49.9,558.6,47.5,547.5L47.5,547.5z
				 M62.2,588.5c2,0.5,2.5,0.5,2.4,1c0.5,5.3,6.4,7.4,3,11l-13.7,4.7l-1,0.5c-1.9-1.6-2.9-1.6-2.9-3.7
				C54.3,597.9,56.3,590.6,62.2,588.5L62.2,588.5z M65.1,614.7l22.5,40.4l14.2,59.8l-0.5,1.6c-3.4-7.9-5.4-11.5-10.8-18.9
				c-14.2-28.3-43.6-54.6-49.9-84L65.1,614.7L65.1,614.7z M42.1,639.9c22,40.9,54.3,68.8,62.6,119.7v1.6l-21-44.1
				c-1.5-1-2-2.1-4.9-3.1C62.2,690.3,47,667.7,42.1,639.9L42.1,639.9z M74.4,738.6c1-2.1,5.4-7.3,5.8-2.1l-5.4,28.3
				c-0.5,2.1-3.9,0-3.9-1.1C67.6,756,68,746,74.4,738.6z M68.5,797.4c4.9,2.1,8.3,4.7,10.3,8.4l1.4,22.6h-2.9
				c-5.9-5.2-8.8-8.9-11.3-15.7C66.1,806.9,64.1,800.6,68.5,797.4L68.5,797.4z M63.2,775.9c1.4,2.6,1,6.3-1,8.4
				c-1,1.6-3,1.6-4.9,1.6h-1.9l-1.5-6.3l6.9-6.3C62.2,774.3,63.2,774.8,63.2,775.9z M56.3,800.6c0,0,0,1.6-0.5,3.7
				c-3.4,8.4-8.3,19.4-18.1,21l-1.5-0.5c0-5.3-1-11,1.5-17.8c2-5.8,7.3-9.5,12.7-9.5C52.9,798.5,55.8,798.5,56.3,800.6z M36.2,736.5
				c2-1.1,3.4,0.5,5.9,2.1c7.8,4.2,13.2,13.2,14.2,22.6l-5.9,4.2l-2,1c0,0-1.5-1-2.9-2.6C39.7,758.1,34.8,747,36.2,736.5L36.2,736.5
				z M16.2,781.7c1.5-1.6,2.9-2.1,4.9-3.7c6.4-4.7,15.6-4.7,21,1.6v7.9l-12.7,2.1L16.2,781.7L16.2,781.7z M42.1,942.3
				c-3.4-5.2-2.5-10.5-5.9-16.3c0.5-9.5-3-18.9,4.4-24.2l2.9,40.4C42.1,942.8,42.1,943.4,42.1,942.3L42.1,942.3z M47.5,874.6l-2.5,1
				l-12.2-18.4l6.9,3.2l4.4,6.3c2.9,1.6,5.9,1.6,5.9,4.7C48.9,872.5,48.5,874.1,47.5,874.6L47.5,874.6z M60.7,867.8l-30.8-26.2
				l29.3-16.3l21,24.1c2,0,3-1.1,3.4-1.6l8.3-13.1l19.1,43.1C95.4,870.4,78.3,861.5,60.7,867.8L60.7,867.8z M64.6,897.7
				c0.5-2.1,3.4-2.1,3.9-2.1l6.9,1.6c20.1,21,34.8,44.1,47,70.3C99.8,950.7,79.8,920.8,64.6,897.7L64.6,897.7z M144.9,980.1
				l-28.4-46.2l28.4,45.2V980.1z M124.3,925.5C106.7,906.6,87.1,883,61.2,883l6.4-5.3c8.8-3.1,17.6,0,26.4,3.7
				c7.3,4.7,16.2,8.4,22.5,14.2c15.7,18.9,26.4,43.6,34.3,68.3v1.6C141.9,950.7,134.1,939.2,124.3,925.5z M136.6,1029.4l-5.9-3.7
				c0-1.1-1-2.6-1-3.7c1-2.1,2.5-2.6,3.4-3.7c8.8,0,16.6-3.1,25.9,1.1c7.3,0.5,10.8,9.5,14.2,17.3c2,11,5.4,22,5.4,33.1l-0.5,0.5
				C160,1061.5,144.9,1047.3,136.6,1029.4L136.6,1029.4z M155.1,1069.9c38.7,22.6,78.8,53,104.7,94
				C227.1,1128.7,182.1,1111.4,155.1,1069.9z M263.3,1128.7l14.7,8.9l3.4,12.1c-2,1.6-5.9-1.1-8.3-1.1L263.3,1128.7L263.3,1128.7z
				 M205.6,1194.3l38.6,20.4l-30.8,8.9l-0.5,0.5c-1-2.6-1-3.7,0.5-7.3C215.3,1206.9,205.6,1200.1,205.6,1194.3z M218.8,1188
				c0.9,1,2.3,2,3.2,2.1C220.1,1190,218.8,1188.5,218.8,1188z M175.2,1156.5c-16.1-18.4-41.1-39.9-70.5-33.6l24.5-10
				c1.5-2.6,0-3.7,1.5-5.3c35.4,8.8,59,40.4,86.1,63.5l22,15.8c-7.8-4.3-15-9.8-22-15.8l-27.9-19.9c-1.5,1-2.5,1.6-2.5,2.1
				c3.4,12.6,19.1,18.4,24.9,29.4C196.7,1180.7,186.9,1168,175.2,1156.5L175.2,1156.5z M205.6,1254.1c-1,3.1-3,3.7-3,5.2l-1.9,1.6
				h-1.5c-2.4-3.2-2.4-8.9,0-12.1C202.6,1248.9,204.1,1251.5,205.6,1254.1L205.6,1254.1z M156.6,1248.4l-8.3-10l19.6-5.3
				c4.4,1.6,6.4,5.8,11.7,7.9c3.4,1.6,7.8-0.5,10.8-2.6c0.5-1.6,0.5-3.2,0.5-3.7c-3.9-10.5-5.9-26.2,0-35.7l10.3,10.5
				c1.4,8.9,1.4,20.5-3.9,27.3l-8.3,4.7c-3.4,3.2-2,12.1-6.9,12.6h-16.2L156.6,1248.4L156.6,1248.4z M190.4,1271.5
				c-2.9,3.1-5.4,6.8-7.3,11c-4.9,6.8-15.2,11-24,10.5c-1.5,0-3.9-1.6-3.9-3.7c4.9-14.2,16.1-22,30.4-24.1
				C187.4,1267.3,190.9,1268.8,190.4,1271.5L190.4,1271.5z M238.8,1282.5c-11.8,1.6-13.7-11-22-14.7c-1.9,1-2.4,2.6-3.4,3.7
				l-2.5,35.2l-5.4,5.3l-1,0.5c-2-1.6-2-2.1-5.4-5.8c-3.9-9.5-5.4-24.1,0-32.5c7.4-1.1,11.8-6.3,15.2-10.5c7.8,6.8,22,3.7,25.4,16.8
				C239.3,1282.5,238.8,1282.5,238.8,1282.5L238.8,1282.5z M242.3,1233.1c-4.4,12.1-13.7,18.4-23.5,22.6l-2-1
				c1.5-6.3-2.4-9.5-3.4-15.2c6.8-8.4,17.6-12.1,28.9-11.6V1233.1z M244.2,1252.1l15.7-29.4l6.9,35.2H255
				C251.1,1254.7,245.7,1257.3,244.2,1252.1L244.2,1252.1z M261.8,1282l-1.5,0.5c-0.5-2.6-0.5-4.7-2-5.8l-10.3-5.3v-3.7l19.1,3.7
				C265.2,1276.2,263.8,1278.8,261.8,1282L261.8,1282z M285.3,1164.4l16.6,37.8c-10.8-5.8-25.9-27.3-30.8-42L285.3,1164.4
				L285.3,1164.4z M278,1243.1c9.8,5.2,19.6,8.9,22.5,18.9c-0.5,1.1-2,1.1-2.9,1.1l-7.8-2.1c-4.9-2.6-10.3-7.4-11.7-12.6
				C279,1246.3,276.5,1245.2,278,1243.1L278,1243.1z M274.6,1285.7h-1.5c3.4-6.8,6.4-12.6,13.2-14.2c4.9,3.1,11.3,1.6,14.2,6.8
				L274.6,1285.7L274.6,1285.7z M328.9,1271.5c-16.2-7.9-21-26.2-34.3-34.7c15.2,5.8,33.8,9.5,44,21
				C336.7,1263.6,333.7,1267.8,328.9,1271.5L328.9,1271.5z M286.3,1377.5c1.5,1.6,2,2.6,2.5,2.6l-28.9,9.5h-1.5
				c1.5-4.2,5.9-6.8,8.8-11.6c5.9-7.4,15.7-13.1,25.9-12.1c-3.4,2.1-6.4,2.6-7.8,4.7C284.3,1373.8,285.3,1376.5,286.3,1377.5
				L286.3,1377.5z M300,1337.1c-2.5,1.6-4.4,3.7-4.9,5.2c0,1.6,0.5,3.2,0.5,3.7v0.5c-12.2-3.1-18.1-11.5-24.5-21.5
				c11.3,0,25.4,0.5,32.3,8.4c0.5,3.2,2,3.7,2.4,5.3c2,1.6,3,2.1,3.4,3.7L300,1337.1L300,1337.1z M302.4,1360.7l-1.5,0.5
				c1.5-2.6-1-7.4,1.5-7.9c2.9,1.6,3.4,1.6,4.4,3.2C305.8,1359.1,303.9,1359.1,302.4,1360.7L302.4,1360.7z M311.3,1424.7h-2
				c-2.4-5.2-0.5-10-3.4-16.8c3.4-12.1,2-26.8,3.4-37.3l6.9,20.5c1.5,0,3-0.5,3.4-1.6c2.5-3.7,2.5-10,2.5-15.2l1.5,12.6
				c0,0,1.4,2.1,2,4.2C327.9,1406.4,320.1,1417.4,311.3,1424.7L311.3,1424.7z M491.3,1275.1c8.3,18.9,17.1,37.3,22.5,56.2
				c-13.7-8.4-22.5-21.5-27.9-38.3c-3.4-15.2-14.2-29.4-17.1-40.4C477.1,1257.3,486,1265.7,491.3,1275.1L491.3,1275.1z
				 M452.2,1247.8c12.2,15.7,22.5,34.1,28.9,57.2c4.4,6.8,6.9,14.2,10.3,20.5c-28.4-13.1-56.8-43.1-71.4-73
				c8.3-2.1,17.1-6.3,24.5-0.5L452.2,1247.8L452.2,1247.8z M447.8,1308.7l-33.3-12.1l5.4-22.1L447.8,1308.7L447.8,1308.7z
				 M429.7,1226.3c3.9,1.6,8.8,4.7,7.4,9.5l-20.1,3.7l-11.8-7.3c-1.5-2.1,0-4.7,1.5-6.3L429.7,1226.3L429.7,1226.3z M401.3,1201.1
				c1-1.6,2-3.7,5.4-6.8c6.9-5.3,20.1-9.5,27.9-5.8c-6.4,13.7-15.7,23.6-27.9,28.4l-1.5-0.5C406.7,1209,400.3,1206.9,401.3,1201.1
				L401.3,1201.1z M407.6,1284.1l-1,1.6l-16.6-21v-23.1c1-1,2.5-2.1,3.4-2.1h3.4C405.2,1252.1,412.6,1268.8,407.6,1284.1
				L407.6,1284.1z M394.9,1220.5l-3.4,6.8c-0.5,1-3.4,2.1-4.9,2.1c-3.4,0-3.9-3.7-4.4-5.3c0.5-3.7,0-7.3,1-9.5
				c2.9-1.6,6.9-2.1,9.8-0.5L394.9,1220.5L394.9,1220.5z M352.4,1216.4c-5.9-4.2-11.3-13.1-9.8-18.9h19.6c6.4,3.7,9.8,9.5,11.3,15.7
				l-3.4,8.4C364.6,1220.5,358.7,1219,352.4,1216.4L352.4,1216.4z M368.5,1284.1l-19.6-7.9l7.8-3.2c5.4,3.7,11.7,5.8,15.7,11H368.5
				L368.5,1284.1z M377.8,1265.7c-1,1.6-3.4-1.1-3.4-2.1c1.5-2.1,2.5-2.6,4.4-2.6C377.8,1263.1,379.3,1264.6,377.8,1265.7z
				 M352.4,1263.6h-2.5c-2-11.5,7.8-21,13.7-27.8l8.3-2.1c2.4,2.1,5.9,4.7,6.9,7.9C371.9,1252.6,363.1,1261,352.4,1263.6
				L352.4,1263.6z M378.8,1199.5c-4.4-12.6-2.9-28.3,1.5-38.8c1,1.6,2.4,2.1,4.4,5.2c4.9,10,9.8,23.1,4.9,34.1
				c-1.4,1.6-2,1.6-2.9,1.6l-2,0.5L378.8,1199.5L378.8,1199.5z M347.5,1310.8c35.2,3.7,71.5-0.5,105.2,12.1c-1.4,0-2.4,0.5-3.4,0.5
				C415.5,1319.8,380.3,1325.5,347.5,1310.8L347.5,1310.8z M337.2,1383.8h-1.4c-4.4-10-2.4-22.6,0-32l24.5-5.3c2-1,2-2.1,3.4-2.6
				c26.4-3.7,54.3-8.9,78.8-2.1C412.6,1361.2,377.8,1383.8,337.2,1383.8z M380.3,1388.5l-1-1c23-7.4,41.6-18.9,62.2-32
				c16.6-8.9,37.2-13.1,55.3-11c1.5,2.1,1,3.2-1,3.2C451.2,1349.7,422.8,1387,380.3,1388.5L380.3,1388.5z M477.1,1406.4h6.4l0.5,6.9
				c-1.5,1.6-2,1.6-3.4,1.6h-2C477.1,1411.6,475.2,1408,477.1,1406.4z M475.7,1393.2l-1-0.5c-4.9-5.8-6.4-16.3-3-24.2
				c0.5-0.5,3-2.1,3.9-1.6l6.9,8.9c1.5,5.8,2.9,13.6-2,17.3L475.7,1393.2L475.7,1393.2z M428.2,1384.8h-1.5l32.8-15.2
				c-2,4.7,1.5,10.5-2,13.6L428.2,1384.8z M447.8,1409.5c-4.4-3.2-11.3-7.9-10.8-13.7c5.4,0.5,10.8-2.6,17.1-1.6
				c5.9,2.6,10.8,8.4,12.2,15.2c-0.5,1.6-1.5,1.6-2,2.1l-6.9,1.6C454.6,1412.2,451.2,1410.1,447.8,1409.5L447.8,1409.5z
				 M520.2,1430.5c-2.5,1-4.9,0-8.3,1.6c-9.2,3.7-12.2-9.9-19.5-11.5c-0.6,0.7-1.2,1.3-2,1.8c-0.7,0.8-1.2,1.7-1.5,2.9
				c5.9,11,7.3,27.8,2,38.9l-2,1.6h-1.5l-10.3-37.8c-1.4,0-2.4,0.5-2.4,1c-3.4,3.2-4.4,6.8-6.4,12.6c-4.9,5.2-11.7,13.1-17.1,12.6
				v-7.4c1.4-11.5,11.3-18.9,20.1-23.6l5.8,3.7l8.3-1.6c0,0,2-0.5,3.4-2.1c0.5-0.3,1-0.5,1.5-0.8c0.5-0.6,1.2-1.2,2-1.8
				c0,0,0.1,0,0.1,0c3.6-4.2,2.3-10.4,4.3-14.2c0,0,2.5,1.1,3.4,1.6C508.4,1411.6,518.7,1422.6,520.2,1430.5L520.2,1430.5z
				 M516.8,1387c-2,6.3-5.4,11-11.3,12.1l-6.4-2.1c-2.5,1-3,1.6-3.4,2.1l-2.5,1c-2-1.6-2.5-3.1-2-4.2c1.5-3.1,4.4-5.2,5.4-8.9
				c5.9-6.8,13.7-12.6,20.5-9.5C516.8,1380.1,516.8,1383.3,516.8,1387L516.8,1387z M495.7,1371.7l-1.5,0.5l-8.3-11.6h32.8
				L495.7,1371.7L495.7,1371.7z M534.9,1387l-5.9,1.6h-1.5c-1.5-3.1,0-8.9,2.5-9.4c2.5,1,3.4,2.1,4.9,4.2
				C536.8,1385.4,536.3,1387,534.9,1387L534.9,1387z M528,1368.6l-1-6.3c21.5-3.1,40.6,12.1,61.2,15.2c0.5,0.5,0.5,1.6,0,2.1
				l-18.6,1.6C557.9,1371.7,543.2,1366.5,528,1368.6L528,1368.6z M581.4,1420.5l-22.5-11c-3.4-4.2-4.9-10.5-4.4-15.2
				c2.5-1.6,4.4,0,4.9,1.6c1,3.2,2,6.3,3.4,8.4c20.6,22.5,51.9-7.4,74.9,8.9L581.4,1420.5L581.4,1420.5z M662.1,1409.5
				c-22-7.4-45-17.3-68.5-7.4c-10.3,0.5-19.1,0-23.5-8.9c-0.5-2.1,1.5-2.6,2.9-3.7l66.1,6.3c1-1.6,1-3.1,1-3.7l-16.2-12.6
				c-2-3.1-2.4-4.2-3.9-7.9c-2.9-11-1.5-18.9-1-27.8c2.5-4.2,6.9-10.5,11.3-10.5c-2.5,3.7-1.5,5.3-3,10.5
				c-5.9,33.6,21.1,47.2,36.2,65.6H662.1L662.1,1409.5z M688.5,1420.5l-11.7-4.7c-1-1-0.5-3.7,0-4.7c-5.4-8.4-10.8-16.8-10.8-29.9
				c1.4-6.8,1.4-18.9,6.9-21.5c2.9,12.1,2.9,23.1,3.9,36.2c1.5,10.5,9.8,18.9,15.2,24.7H688.5L688.5,1420.5z M734.5,1396.9l-6.9,9.4
				c-1.4,1.1-2.9,1.6-3.4,1.6l-1.4-0.5l11.7-44.1L734.5,1396.9L734.5,1396.9z M820.2,1380.1l-6.9,1.1
				C810.9,1380.1,819.2,1378,820.2,1380.1z M784,1337.1c0.5,3.1,2,3.7,4.9,7.3c5.4,10.5-3.4,22.6-6.3,33.1l-8.8,3.7l-2-1.1
				c12.7-15.7-2-36.7-3.4-53C774.2,1330.3,780,1332.4,784,1337.1z M782,1423.2l-27.9-9.5c21.5-5.8,46-2.1,65.1,7.4L782,1423.2
				L782,1423.2z M829.5,1411.1l-50.9-12.6c7.4-3.7,17.1-3.7,26.4-6.3c12.7,0.5,24,6.3,29.3,18.9
				C832.4,1411.6,830.9,1411.1,829.5,1411.1L829.5,1411.1z M851,1403.8l-1,0.5l-10.2-5.3c-1-1.1-3-3.2-1.5-4.7
				c3.4-1.1,6.9,1.6,9.3,1.6l3.4,6.3V1403.8z M852.5,1383.8l-1.5,1c-2.4-3.1-5.8-1-7.8-3.1c2.4-2.6,12.2-4.2,12.7,1
				C854.4,1383.8,853.9,1383.8,852.5,1383.8L852.5,1383.8z M873,1389.6c-1,3.2-3.4,0-3.4-1.1c0-1.6,2.4-3.1,3.9-1.6
				C873.5,1387.5,873,1389.6,873,1389.6z M1035.5,1212.1c9.3-7.3,24.5-10.5,34.8-7.3c0,0-1.5,1-2.5,3.7c-9.3,10-18.1,21.5-32.3,18.9
				h-1l-3.9-5.3C1032.1,1219,1032.1,1214.8,1035.5,1212.1z M1023.3,1168c7.3,13.1,7.8,32,0,44.1l-1.5,0.5l-8.8-4.2
				c-1.5-3.1,0-6.3-1.5-8.9C1011.5,1187,1014.9,1173.8,1023.3,1168z M1025.7,1266.7c3-1.6,4.9,1.1,4.9,3.7c-1.5,2.1-1.9,2.6-3.4,2.6
				h-1.5V1266.7z M1008.1,1225.8c2-2.1,6.4-4.2,9.8-3.1l2.5,8.4c-0.5,3.7-3.4,6.3-5.9,7.4c0,0-1.5,0-2.9-1.1
				C1008.1,1235.2,1006.6,1229.5,1008.1,1225.8L1008.1,1225.8z M1003.7,1254.1c2.5-2.1,3.9-4.2,7.3-4.2c0.5,0.5,2,2.1,2.5,2.1
				c2.5,11.5,4.4,24.1-4.4,30.4c-2.9,1-2.9,3.2-4.9,3.2h-1.5L1003.7,1254.1L1003.7,1254.1z M992.4,1199.5
				c6.9,2.1,10.3,9.5,10.3,15.2c-1.5,3.2-2,3.7-3.4,5.8c-10.8,0-21.5,0-26.9-8.4l-2.5-19.4C977.7,1193.8,985.1,1196.4,992.4,1199.5z
				 M969.4,1235.2c8.3-5.3,20.5-5.3,28.4-2.1c2.5,5.3-0.5,11-3.4,12.1l-20,5.2c-4.9-2.1-10.3-2.1-12.2-7.3
				C963.5,1242.6,966,1238.9,969.4,1235.2L969.4,1235.2z M991.4,1294l-36.7,22l-1-0.5l26-29.9c2.4-1.6,5.8-5.3,8.8-3.2L991.4,1294z
				 M951.8,1252.1c8.8,8.9,24.9,8.9,35.2,8.9c-17.6,21.5-40.1,55.1-68.5,64.6h-1.5c6.3-13.1,11.8-26.2,15.2-43.1
				c5.4-11,10.3-21.5,16.2-29.9C948.9,1252.1,951.3,1252.1,951.8,1252.1z M899.9,1313.5c11.8-22.6,17.1-44.1,34.8-57.7
				c-6.9,13.7-14.2,27.8-18.1,45.7c-4.9,14.2-10.8,29.4-24.4,33.6c0,0-1.5-0.5-1.5-0.5C894.1,1327.6,896.5,1320.3,899.9,1313.5
				L899.9,1313.5z M880.4,1445.2l-2,0.5c-1.5-0.5-2-1.1-3-2.6l4.9-7.4l23-8.9c1.5-0.5,2.5-3.7,2.5-4.7c-1-1.6-1.4-3.2-2.5-3.7
				c-5.4-3.7-12.2-8.4-16.1-16.3c-0.5-3.1-5.9-12.6,0-13.6l11.7,2.1c10.8,9.4,7.4,26.2,9.3,39.9
				C902.4,1442.1,892.1,1445.8,880.4,1445.2L880.4,1445.2z M882.3,1370.7l35.7,3.7l-6.4,13.1l-0.5,1L882.3,1370.7L882.3,1370.7z
				 M915.1,1469.9c-0.5,1.1-3,1.6-3.4,1.6l-1.5-0.5c0-7.4-3.4-15.8,0-24.2c2-4.7,8.3-13.1,11.8-11
				C922.4,1448.4,923.4,1462.5,915.1,1469.9L915.1,1469.9z M923.4,1420.5c-1,0.5-2.5,1.6-3.4,1.6c-1.9,0.5-1.9-2.6-1.9-3.7
				c0.5-1,1.9-2.6,1.9-3.2c2.5-0.5,3.4-1.6,5.4-0.5C925.4,1417.4,923.9,1419.5,923.4,1420.5z M925.4,1404.3c-2,0-5.4-2.1-5.4-3.7
				l7.8-20.5l2.9,16.8l-3.9,6.8L925.4,1404.3L925.4,1404.3z M951.3,1454.1l-2.5,0.5l-16.1-11.6l-2-11.6l14.2,1.1c0,0,1.5,1,3.4,2.6
				C954.7,1438.4,953.3,1447.3,951.3,1454.1L951.3,1454.1z M961.1,1411.1c-4.4,6.3-10.8,9.5-18.1,6.3c-2.9,0-2.9,2.1-4.9,2.1
				c0,0-0.5,1-0.5,1c-1.9-3.1-3.4-8.9-1-11l26.9-1.6C963.5,1408,962.6,1410.1,961.1,1411.1L961.1,1411.1z M945,1394.8l-1.5,1
				l-3.4-16.3c11.3-0.5,22.5,7.9,30.8,13.1L945,1394.8z M1030.6,1404.3c-50.9-13.7-92.5-50.4-144.8-45.7
				c62.6-25.7,103.2,34.1,160,45.7H1030.6L1030.6,1404.3z M1086.4,1408c2-0.5,2.9-1.6,3.4-2.1l4.9-31.5l25.4,3.1c1-1,1-3.1,1-3.1
				l-19.1-14.7l9.3-8.4l3.4-7.3c-1-3.2-2.4-4.2-5.4-5.3c-5.9,2.1-8.8,6.8-12.7,11c0.5-1.6,1.5-3.2,3.4-5.3
				c10.8-9.4,28.9-17.8,44.1-15.7c-2,3.7-3.4,4.7-5.4,10c-6.4,5.8-12.2,14.2-21.1,14.2c-2.9,1-6.4,4.2-6.4,6.8
				c3.4,6.8,8.3,8.9,15.2,8.4c14.2,3.7,22.5,17.3,25.9,31c0,0-1.4,0-3.4,1c-20.1,0.5-34.3-13.1-47.5-20c-2.5,1.1-4.4,3.7-4.4,6.8
				c8.3,13.6,2,29.9-1.5,43l-1,0.5h-1c-10.3-5.8-12.2-15.7-13.7-26.8L1086.4,1408L1086.4,1408z M1075.6,1367l-6.9,28.9l-2,0.5
				c-44.5-2.1-78.8-29.9-112.1-48.8l57.7-1.6L1075.6,1367L1075.6,1367z M1066.8,1320.3c-6.9,4.7-14.2,5.3-22.5,10
				c-22,4.2-41.6,6.8-63.2,6.8l-41.1-1.1c14.7-9.5,31.3-6.8,48-14.2C1014.4,1314.5,1041.4,1313.5,1066.8,1320.3z M992.4,1308.7
				l-0.5-0.5c14.2-7.9,26.4-17.3,42.1-27.3c6.9-4.7,15.7-0.5,21,4.7L992.4,1308.7z M1051.6,1271.5c-9.3-2.1-15.7-12.1-22.5-21
				c-1-2.6-3.4-7.9-0.5-11c1.4-0.5,2.4-1,3.4-1c3.9,2.6,6.8,2.1,11.2,4.2c8.3,5.8,12.3,18.4,13.7,28.9H1051.6z M1224.9,1252.1
				c2-1.6,3.4-2.1,6.9-3.7c11.7-5.8,25.9-3.1,34.3,3.7c-1,2.6-2.5,2.6-2.9,4.2c-10.3,7.3-22.5,11.6-34.8,10.5l-6.9-3.7
				L1224.9,1252.1L1224.9,1252.1z M1215.6,1209l-3,37.3c-2.5,0-4.4-1.6-6.9-1.6c0,0-0.5-1.6-2-3.7
				C1201.4,1229.5,1205.8,1216.4,1215.6,1209L1215.6,1209z M1198.4,1257.8l10.3-1.6c2,1.6,3.4,4.7,3.4,6.8c-1.5,3.7-3.9,6.3-6.9,7.3
				h-3.4c-2.5-1-4.9-3.1-5.9-3.7C1195,1263.1,1196,1258.3,1198.4,1257.8z M1200.4,1282c4.9-2.1,11.3-2.1,16.6-5.8
				c9.3-1.6,21,1.6,26.5,7.9l2.4,13.7c-15.7,1.6-25.4-10-35.7-17.3c-1.5,0.5-2.9,1.6-3.4,2.1c-1,1-1.5,2.1-1.5,3.2
				c2.9,5.2,3.9,8.4,3.9,15.7c1,11-3.9,20.4-8.8,27.3l-2,0.5c-2-3.7-3.4-7.4-5.4-13.7C1191.6,1304,1191.1,1288.3,1200.4,1282
				L1200.4,1282z M1295.8,1192.7l-24.5,8.9l-1.5,0.5c3.4-22.6,26.4-25.2,40.1-37.8C1310.5,1177,1301.7,1185.9,1295.8,1192.7z
				 M1345.2,1051l-23,1c-4.9-1-8.3-4.7-10.8-8.4c0.5-2.1,3.4,0,3.9,0c3.4-1.1,4.9-3.7,5.4-5.3v-3.7l-16.2-10h22.5
				C1337.9,1030.5,1343.8,1040,1345.2,1051L1345.2,1051z M1301.2,999.5c6.9-4.7,18.1-15.7,26.9-10.5l-10.8,21
				c-1.5-3.7-2.5-4.7-5.4-5.3l-17.6,7.9h-1.5C1295.8,1009,1297.8,1005.3,1301.2,999.5L1301.2,999.5z M1299.2,1057.8
				c1-2.6-1.4-9.5,1-8.4l5.9,26.3l-2.5,1.6c-5.4-3.7-9.8-7.4-10.8-13.1C1294.8,1060.9,1299.2,1060.9,1299.2,1057.8L1299.2,1057.8z
				 M1354.1,752.3c5.4-1.6,12.2-14.7,17.6-10l-4.4,22.6l-6.9,6.3l-1.4,1c-3.9-2.6-3.9-7.3-6.9-8.4
				C1350.6,759.6,1353.6,756,1354.1,752.3L1354.1,752.3z M1303.6,799.5c4.4,3.7,11.3,1.6,13.2,6.3l-2.9,10.5l-16.6,24.1h-1.5
				L1303.6,799.5L1303.6,799.5z M1295.8,675.1c1.5-9.5,5.9-20,11.3-23.6l-8.8,26.2l-1,1.6C1297.3,679.3,1295.8,677.2,1295.8,675.1
				L1295.8,675.1z M1325.7,792.7c-1.4,0.5-2.9,0.5-3.4,0.5c-2,0-4.9-2.1-8.3-2.1c-2.5-2.1-7.3-3.7-6.9-8.4c1.5-0.5,3-0.5,4.9-1.1
				c6.9-2.1,12.2,2.1,15.2,6.3C1327.1,789.6,1326.2,791.7,1325.7,792.7L1325.7,792.7z M1335,797.4c2.9,2.1,5.4,4.7,5.4,8.4
				l-2.4,22.6c-1.5,1.1-2,2.1-2.9,2.6l-5.9,1.6l-3,0.5c-3.4-9.5-3.4-20.5,1-27.3C1331.1,804.2,1332.5,800.6,1335,797.4L1335,797.4z
				 M1317.4,769.6h-5.9c2-3.2,2-8.4,5.4-8.4C1316.9,763.8,1319.3,768.5,1317.4,769.6z M1313.9,746c-1.5,2.1-2,2.6-3.4,2.6l-3.9,7.4
				l-0.5,1.6c0.5-9.5,2.5-21,8.8-26.2L1313.9,746L1313.9,746z M1315.4,835.2l-0.5,7.4c1,3.2,3.9,5.3,7.4,5.3l21.5-10
				c1-1.6,2.5-3.2,3-3.2l20.5,13.1c0,1.6-1,3.1-1,3.7c-7.3,4.2-13.7,10-24.5,13.7c-10.8,12.6-30.4,7.4-46,15.7l-1.4-0.5
				C1294.8,860.9,1303.2,847.3,1315.4,835.2L1315.4,835.2z M1366.3,833.1c-1.9-1-3.4-1-4.9-1c-2.9,0-3.9-3.7-7.3-6.8
				c-4.9-5.8-5.4-17.3-2-24.1c3.4,0,7.3,2.1,10.3,4.7l5.4,26.3L1366.3,833.1z M1343.8,776.4h3l3.4,11.5c-1,1.1-3.4,1.6-4.9,1.6
				c-3.4-0.5-5.9-2.1-6.9-5.3C1339.9,780.1,1341.3,778,1343.8,776.4L1343.8,776.4z M1332.5,746l5.4,21l-5.4,2.6h-3
				c-3.4-8.4-8.8-21.5-3.9-30.5C1329.1,741.2,1331.1,743.3,1332.5,746L1332.5,746z M1325.7,723.9l-8.3-0.5l-2,0.5l40.6-58.3
				C1350.2,690.3,1341.3,708.7,1325.7,723.9L1325.7,723.9z M1352.6,602.1l8.3,11.5l-19.1,4.7c0,0-1.5,0-2-1
				c-4.9-2.6-12.7-9.5-10.8-13.7l7.8,3.7c1.5,0,3-1,3-1.6c0.5-1.6,0.5-3.2,0.5-3.7c-0.5-3.2-2.4-3.2-2-5.3
				C1343.8,596.4,1349.2,599,1352.6,602.1L1352.6,602.1z M1330.6,559.6l22-6.8c-3.4,15.7-17.6,21-23.5,33.1v3.1c0,1.6-3.5-1.6-3-3.1
				c2-4.7,9.8-7.9,8.8-13.7c0-1.6-0.5-2.6-1-3.7c-1.5-0.5-2.5-1.6-3.4-1.6c-2.9,1.1-2.9,2.6-4.9,1.6L1330.6,559.6L1330.6,559.6z
				 M1330.6,625.2l33.8,1.6c-0.5,3.1-2,6.8-3.4,11c-11.8,31.5-37.2,54.6-54.8,84l-1.5,0.5c-4.4-11.6,0.5-23.1,2-37.3
				C1314.9,664.1,1318.8,641.5,1330.6,625.2L1330.6,625.2z M1303.2,561.2c0.5-8.4,0.5-24.7,6.9-29.9l5.4,28.4
				c-3,1.6-5.9-1.1-8.3,1.6l-0.5,21.5h-0.5C1306.1,575.9,1303.6,569.6,1303.2,561.2z M1310.5,604.2c3.4,0,4.9,3.1,6.9,3.1l4.9,9.5
				l-29.8,37.8h-1.5C1292.9,635.2,1300.2,616.8,1310.5,604.2z M1284.1,513.9c-5.9,22.6-10.3,44.6-14.7,67.2l-2.9-7.4
				c-0.5-32,11.7-61.4,21-91.9C1287.5,492.9,1287.5,502.4,1284.1,513.9z M1286,415.2c1.5,2.6,4.9,8.4,1.5,10.5h-9.3
				c-1.5-0.5-2.5-0.5-2.9-0.5l-5.4-14.7C1276.7,408.4,1280.7,414.2,1286,415.2L1286,415.2z M1266.5,382.2c3.4-3.1,10.8-6.8,15.2-2.6
				l-5.9,10.5l-6.4,3.7c-2.9-2.1-5.9-5.8-5.9-8.9C1263.5,384.8,1264.5,383.2,1266.5,382.2z M1252.3,401.1c0.5-2.1,2-3.7,3.9-3.2
				c1.5,1.1,1.5,1.6,1.5,3.2c0,2.1-1.5,3.7-3,3.7C1252.3,404.8,1251.3,401.6,1252.3,401.1z M1241.5,363.8c1-3.1,2-7.3,4.4-5.2
				c4.9,7.3,7.8,21,3.4,29.4l-1,0.5h-1.5C1240.1,383.2,1241.5,373.3,1241.5,363.8z M1220.5,388.5c7.4,0,16.6,0.5,20.1,8.9
				c-0.5,7.9,3.4,15.2,8.8,17.8c5.4-0.5,12.2-0.5,14.2,4.7l-3.9,23.1h-1.5c-8.8-4.7-8.8-13.7-8.8-23.1l-5.9-3.1
				c-3.4,0-4.9,3.7-8.3,5.2c-2,0.5-5.9,1.6-4.9-2.1l9.8-5.2c0.5-0.5,0.5-2.1,0.5-3.7l-21-17.3C1219.5,391.6,1217.5,389,1220.5,388.5
				L1220.5,388.5z M1211.7,399v3.1c0.5,2.6,2,2.6,2.4,3.7c0.5,4.7-2,8.4-3.4,11L1211.7,399L1211.7,399z M1212.6,452v1.6l-6.9-15.2
				c2.9-1,1-4.7,3.4-4.7L1212.6,452L1212.6,452z M1208.7,392.2l-4.9-16.3C1208.2,380.6,1209.2,386.4,1208.7,392.2z M1198,430
				l-20.1-31l-0.5-56.2C1191.6,365.4,1208.2,399,1198,430L1198,430z M1196,451.5v0.5l-5.9-3.7c2.4,0,4.9,1.6,4.9,2.1L1196,451.5z
				 M1167.1,352.8l1,28.4l-1,1.6l-3.4-29.9L1167.1,352.8L1167.1,352.8z M1144.1,271.9l-0.5,15.7
				C1140.7,283.5,1140.7,275.6,1144.1,271.9z M1139.2,305.5c-4.4-5.3-13.2-12.6-10.3-18.9l5.9,11.6c0.5,3.7,3.4,6.3,5.9,6.3l3.9-5.8
				l15.7-5.8L1139.2,305.5L1139.2,305.5z M1104,292.9l4.9,24.1h-1v-4.2C1104,307.1,1100.6,298.7,1104,292.9L1104,292.9z
				 M1086.4,334.4c19.1,6.8,40.1,8.9,48.4,25.7c0.5,1.6,1,2.6,2,3.7C1118.2,360.7,1097.1,352.3,1086.4,334.4z M1103.5,405.8h-1.4
				c-3-1.1-4.9-4.2-4.9-6.8c6.9-6.3,17.6-1.6,24.5,2.1L1103.5,405.8L1103.5,405.8z M1121.1,427.3l-6.4,2.1l-1.9-1v-6.3
				c3.9-4.2,7.4-8.9,13.2-8.9L1121.1,427.3L1121.1,427.3z M1115.7,384.8c0-1.6-1.9-4.2,0.5-4.2c3.4,1.6,6.4,2.1,7.3,4.2l9.8,11.6v1
				L1115.7,384.8L1115.7,384.8z M1138.8,432.1l-1.5,1.6h-1.5l-3.4-7.9l3.4-8.9c-0.5-2.1-0.5-3.7,0-4.7c3-2.6,1,0,3,0V432.1z
				 M1139.2,393.7c-3.9-11.6-10.3-18.9-19.6-24.1c15.2,3.7,27.9,11,38.1,18.9l15.7,24.7v1.1l-34.2-16.3
				C1138.8,395.8,1138.8,395.3,1139.2,393.7L1139.2,393.7z M1151,414.7c12.7,5.2,24,11.5,32.8,22.6l-9.8,1.6
				c-2.5,2.6-5.9,4.2-7.3,7.9c1.4,3.7,3.4,4.7,5.4,5.3c0,0,2,0.5,3.4,0.5c29.3,12.1,47.5,40.9,57.2,70.3
				c-23.5-28.9-57.7-57.7-86.6-78.2L1151,414.7L1151,414.7z M1210.2,521.3c-16.6-16.8-43.5-35.7-54.3-58.3
				c9.8,7.4,19.1,15.7,29.8,24.7c17.6,13.7,38.2,35.2,47.5,56.2C1229.8,541.8,1217.5,527.6,1210.2,521.3L1210.2,521.3z
				 M1259.1,550.2c-1.4,1-1.4,1.6-1.4,0c-12.2-21-19.6-44.1-19.6-69.8c-1-2.6-2-5.2-4.9-5.8c-2,0.5-4.9,3.1-5.4,0.5l-8.8-42l21.1-1
				c0,6.8,3.4,9.5,5.8,14.2c6.9,5.3,17.6,13.7,25.9,9.5c2-6.8-3.9-15.2,2.9-20l7.8,1.1l3,6.3
				C1283.6,480.9,1263.5,513.4,1259.1,550.2L1259.1,550.2z M1247.4,597.9c10.8,11.5,19.1,24.7,24.5,43.1c-0.5,0.5-2,0.5-2.5,0.5
				c-1-0.5-1.5-0.5-2.4-0.5c-2-8.4-7.3-12.1-12.2-18.9C1249.3,614.7,1243.5,605.8,1247.4,597.9L1247.4,597.9z M1242,621l3.9,7.9
				c-2.5-1.1-6.8-1.1-6.9-3.7C1241.5,624.7,1240.1,621,1242,621L1242,621z M1197,556.5c0-3.2-2-6.3-3.4-6.8c-2,0-2.4,0-3.9-0.5
				l-3.9-7.3c21,11,38.2,25.2,52.4,46.7c-1.4,1-3.4,3.7-4.9,4.2C1221,583.2,1205.3,572.7,1197,556.5z M1217,622.1l18.1-14.7
				l-13.7,21.5c-2,3.1-4.4-0.5-4.4-2.1V622.1L1217,622.1z M1208.7,644.7c-2,0.5-2-1.1-2-1.6c0.5-2.1,2-3.7,3.4-3.7
				c2,0.5,3.9,2.6,2.5,5.3C1211.7,645.2,1209.2,644.7,1208.7,644.7L1208.7,644.7z M1229.3,683l-11.3-6.3l-5.4-16.3
				c1.5-0.5,2-2.1,2-3.7l6.8-2.6l8.3,27.3L1229.3,683L1229.3,683z M1233.2,651l-6.4-9.5c1,0,4.9-3.7,8.3-3.7
				c9.8,0,19.6,4.2,25.4,12.6l-11.3,3.7L1233.2,651z M1269.4,723.9l-13.2-15.2c1-2.1-0.5-3.7,1-5.3c1-0.5,3.4,1.6,3.9,1.6l8.3,17.3
				L1269.4,723.9L1269.4,723.9z M1271.8,704c-1.5-1.1-3.4-9.5-1.5-11.6C1271.8,695.6,1273.3,700.8,1271.8,704z M1267.9,668.3
				c-2,1.1-4.9,3.7-4.9,6.8l-0.5,8.9c-1,0.5-2,0.5-2.9,0.5c-2-7.4-15.7-13.1-11.3-20.5l21-4.2c5.9,7.9,11.3,17.9,14.2,30.4
				c6.9,11.6,5.9,23.6,6.9,37.3c-2.9,12.6,3.9,25.7,2,37.3l-1,1.6C1277.2,733.4,1290.9,690.3,1267.9,668.3L1267.9,668.3z
				 M1236.6,923.4c1.4-3.2,3.9-8.4,6.9-5.3l-5.4,19.4l-1,1.1C1233.7,933.4,1236.6,928.1,1236.6,923.4z M1259.6,872l-11.3,7.4
				c-2.9-1.6-4.9-4.7-4.9-6.8L1259.6,872z M1239,884c-2,2.6-6.4,2.1-9.3,2.1h-2c-1-2.1-1.5-3.2-1-4.7
				C1231.7,880.4,1236.6,883,1239,884L1239,884z M1226.3,865.1c1.5,3.7,2.9,5.2,5.4,6.3h-6.9c-2,2.6-2.5-1.6-2.5-2.6
				C1223.9,868.3,1224.4,865.1,1226.3,865.1L1226.3,865.1z M1222.4,930.2l3.9,15.8l-0.5,0.5c0,0-1.4-0.5-2-2.1
				c-2.9-4.7-10.3-11.5-5.9-16.8C1220.5,928.1,1221,929.7,1222.4,930.2z M1217.5,895.6l3.4,18.9l-1.5,1.6c-3.9-2.6-7.3-3.2-8.8-6.8
				C1212.2,903.5,1214.6,899.3,1217.5,895.6z M1185.7,794.8c0.5,1.1,3.9,1.1,5.9,4.2c10.8,10,17.6,26.3,16.6,41
				c-3.4-2.1-4.9-5.3-7.8-4.7c-2,1.1-2.4,1.6-3.4,2.6l-1,1.1l-1,1.6c0,0-1.5-1.6-2.5-2.6C1186.2,824.7,1182.8,806.3,1185.7,794.8
				L1185.7,794.8z M1205.8,893.5c-1,4.7-6.4,10.5-10.8,13.1l-11.3,2.1l-1,0.5c0,0-0.5-1.6-0.5-3.7c2-6.3,3.9-12.1,9.3-13.7l5.4,4.2
				L1205.8,893.5L1205.8,893.5z M1179.4,877.7l-5.4-3.1l-13.7-15.2l25.4-0.5c0.5,2.1,0.5,3.7,0,5.2c1.5,7.9,10.8,6.3,12.7,12.1
				l-17.6,1.6H1179.4L1179.4,877.7z M1203.3,916.6c2.4,20.5,9.3,37.8,24.9,46.2v42c-8.8-29.9-38.6-54-50.9-81.4L1203.3,916.6
				L1203.3,916.6z M1184.3,952.8c16.1,21.5,36.2,40.9,36.2,71.9v0.5L1184.3,952.8z M1180.3,1139.2c-20.1,13.1-39.6,35.7-57.2,54.6
				l-2,1.6c13.7-26.2,35.7-55.1,61.2-68.8L1180.3,1139.2z M1180.8,1153.4c-8.8,32.5-38.2,43.1-59.7,58.8l-1.5,0.5
				c7.3-11,21-22.1,27.9-33.1C1158.3,1169.6,1168.6,1157,1180.8,1153.4L1180.8,1153.4z M1154.4,1014.2c7.3,7.4,14.7,14.7,15.7,27.8
				c-3,0.5-6.4-0.5-7.4,1.6c-1.5,1.1-2.4,2.1-2.4,3.7c0,2.1,1,3.7,1,4.7c0,0-1,0-2-1C1151.5,1042.1,1151,1023.7,1154.4,1014.2
				L1154.4,1014.2z M1126.5,1065.1c1.5-0.5,2.4-2.1,4.9-2.6c7.8-4.7,16.6-4.7,23.5,0.5l-3.9,5.3c1.4,5.3,4.9,7.4,8.8,8.9h-8.8
				L1126.5,1065.1L1126.5,1065.1z M1154.9,1090.4c8.3-2.6,17.1,2.1,22.5,8.4c3.4,5.3,6.4,11.5,3.4,15.2l-25,21.5h-4.9l-2,1l3.4-17.3
				c-1-2.6-3.4-5.8-6.4-5.8l-14.2,5.8C1137.3,1107.7,1144.1,1100.8,1154.9,1090.4L1154.9,1090.4z M1126.5,1136l12.2-4.2
				c-3.9,10-8.8,20.5-17.6,24.7h-1L1126.5,1136L1126.5,1136z M1100.1,1154.9c-3.4-9.5-4.9-23.1,0.5-32l5.4,3.7l6.9,14.7l-3.9,21
				l-1.4,0.5l-0.5,1C1103.5,1162.3,1102.1,1158.6,1100.1,1154.9L1100.1,1154.9z M1114.8,1172.8c1.5-3.7,8.8-6.8,11.8-5.2l-24,42
				l-1,1.6C1106,1198,1111.3,1187,1114.8,1172.8L1114.8,1172.8z M1100.6,1273c-1.5-2.6,0-5.8,1-6.3l23-8.9
				c-1.9,5.8-8.3,10-11.7,13.7l-11.3,1.6H1100.6L1100.6,1273z M1128,1297.7c-8.8-2.6-17.1-3.7-21-13.1c7.8-5.8,14.7-0.5,21,3.2
				l2.4,8.9C1129.9,1297.7,1128.9,1297.7,1128,1297.7z M1088.3,1269.4c-4.9,1-4.9,6.8-8.3,7.4c-2.9,0-4.4-3.7-7.8-5.3
				c-3.4-3.7-8.3-7.9-5.4-12.1l63.6-21C1117.7,1252.1,1094.7,1250.5,1088.3,1269.4L1088.3,1269.4z M1146.1,1293l-2,1.1h-0.5
				l-8.8-15.2l18.1-2.1L1146.1,1293L1146.1,1293z M1187.7,1245.2c0.5,1,1.4,3.1,1.4,3.1l-5.4,15.2l-14.7-7.9l-5.8-18.9
				L1187.7,1245.2L1187.7,1245.2z M1180.8,1276.7l6.4-3.7c2.5,1.1,1.9,3.7,1.9,5.8c-2.9,5.8-7.8,10.5-11.7,14.7
				c-5.4,3.7-12.2,3.2-18.1,3.2h-1.5c-1.5-4.7,2-8.4,3.4-12.6C1165.2,1276.7,1174,1276.7,1180.8,1276.7L1180.8,1276.7z M1160.3,1262
				l-25.4,4.7l-2.5-1l8.3-26.3c-0.5-2.1-3.4-2.6-3.4-4.7l11.7-6.8L1160.3,1262L1160.3,1262z M1289.5,1115.6c6.4,1,16.6,1.6,17.6,9.5
				c0,1.6-0.5,3.1-1,3.7c-15.2-1.6-30.8,3.1-43.1,10.5c-52.9,28.9-91.5,76.1-155.1,92.9c15.7-5.8,35.7-21.5,52.4-35.7
				C1204.8,1165.4,1233.2,1125,1289.5,1115.6L1289.5,1115.6z M1182.8,1052c1-9.5,4.9-25.2,10.8-27.3l-2,31c1,5.2-2-6.3-2.5-2.1
				C1186.2,1053.1,1183.8,1054.7,1182.8,1052z M1189.1,1089.3c14.2-18.9,15.7-46.7,16.6-68.2c14.7,23.6,8.3,49.4,1,73.5l-13.2,8.9
				c-2,0.5-2-1-2-1.6c1.5-2.1,1.5-3.7,2-5.3L1189.1,1089.3z M1224.9,1106.1c-2,0-3.4,1.6-4.4,1.6c-6.4,11-16.6,18.4-26.9,22.6
				l-2-0.5v-12.1l57.7-38.3C1243.5,1090.9,1234.7,1098.2,1224.9,1106.1z M1271.3,1026.8c-1,11-8.3,19.4-13.7,28.9
				c-10.3,12.1-22.5,22.6-36.2,27.8h-1l16.2-39.9l16.1-23.6L1271.3,1026.8L1271.3,1026.8z M1271.3,971.2
				c5.4-13.7,9.3-28.9,19.1-38.3l-18.6,38.3H1271.3z M1275.8,987.5l-1,0.5c9.3-21,20.1-39.4,28.9-62.5c6.4-9.5,11.3-18.9,23.5-18.9
				C1318.3,937.1,1297.8,963.8,1275.8,987.5L1275.8,987.5z M1363.8,921.8c-2.5-6.8-4.9-14.7-11.7-20.4c-13.7-8.9-30.3-7.4-46,0.5
				c-37.7,21.5-43.1,74.6-63.6,111.8c3.4-32,20-76.6,37.6-104.5c14.2-19.4,36.7-27.8,61.7-22.6
				C1355,892.4,1361.4,906.6,1363.8,921.8z M1366.3,871.4c-3.9,3.2-9.3,8.9-16.1,7.9c-3-1.1-6.4-1.6-6.4-4.7l28.9-12.1
				C1371.2,864.6,1368.2,866.7,1366.3,871.4L1366.3,871.4z M1369.7,794.8l-8.3-3.1c1-3.7-0.5-9.5,2.5-12.1c0.5,0,2.5-1,4.4-1.6
				c8.8,1.6,18.6,0.5,23.5,7.9L1369.7,794.8L1369.7,794.8z M234.9,1538.2c-1-0.5-2.9-2.6-3.9-4.2l-13.7,2.1c-2,1.6-0.5,4.2,0,6.3
				c3.9,4.2,11.3,7.9,18.1,8.9c0.5,0,1.5,0,3.4-0.5L234.9,1538.2L234.9,1538.2z M408.6,1564.9c-7.3-7.4-17.6,0-25.9,0.5
				c0,3.2-2,4.2-3.9,5.3c1.5,5.3,8.8,1.6,12.7,5.3h19.6C412.1,1572.8,410.1,1567.5,408.6,1564.9L408.6,1564.9z M234.9,1538.2
				c-1-0.5-2.9-2.6-3.9-4.2l-13.7,2.1c-2,1.6-0.5,4.2,0,6.3c3.9,4.2,11.3,7.9,18.1,8.9c0.5,0,1.5,0,3.4-0.5L234.9,1538.2
				L234.9,1538.2z M408.6,1564.9c-7.3-7.4-17.6,0-25.9,0.5c0,3.2-2,4.2-3.9,5.3c1.5,5.3,8.8,1.6,12.7,5.3h19.6
				C412.1,1572.8,410.1,1567.5,408.6,1564.9L408.6,1564.9z M234.9,1538.2c-1-0.5-2.9-2.6-3.9-4.2l-13.7,2.1c-2,1.6-0.5,4.2,0,6.3
				c3.9,4.2,11.3,7.9,18.1,8.9c0.5,0,1.5,0,3.4-0.5L234.9,1538.2L234.9,1538.2z M408.6,1564.9c-7.3-7.4-17.6,0-25.9,0.5
				c0,3.2-2,4.2-3.9,5.3c1.5,5.3,8.8,1.6,12.7,5.3h19.6C412.1,1572.8,410.1,1567.5,408.6,1564.9L408.6,1564.9z M408.6,1564.9
				c-7.3-7.4-17.6,0-25.9,0.5c0,3.2-2,4.2-3.9,5.3c1.5,5.3,8.8,1.6,12.7,5.3h19.6C412.1,1572.8,410.1,1567.5,408.6,1564.9
				L408.6,1564.9z M234.9,1538.2c-1-0.5-2.9-2.6-3.9-4.2l-13.7,2.1c-2,1.6-0.5,4.2,0,6.3c3.9,4.2,11.3,7.9,18.1,8.9
				c0.5,0,1.5,0,3.4-0.5L234.9,1538.2L234.9,1538.2z M234.9,1538.2c-1-0.5-2.9-2.6-3.9-4.2l-13.7,2.1c-2,1.6-0.5,4.2,0,6.3
				c3.9,4.2,11.3,7.9,18.1,8.9c0.5,0,1.5,0,3.4-0.5L234.9,1538.2L234.9,1538.2z M408.6,1564.9c-7.3-7.4-17.6,0-25.9,0.5
				c0,3.2-2,4.2-3.9,5.3c1.5,5.3,8.8,1.6,12.7,5.3h19.6C412.1,1572.8,410.1,1567.5,408.6,1564.9L408.6,1564.9z M408.6,1564.9
				c-7.3-7.4-17.6,0-25.9,0.5c0,3.2-2,4.2-3.9,5.3c1.5,5.3,8.8,1.6,12.7,5.3h19.6C412.1,1572.8,410.1,1567.5,408.6,1564.9
				L408.6,1564.9z M234.9,1538.2c-1-0.5-2.9-2.6-3.9-4.2l-13.7,2.1c-2,1.6-0.5,4.2,0,6.3c3.9,4.2,11.3,7.9,18.1,8.9
				c0.5,0,1.5,0,3.4-0.5L234.9,1538.2L234.9,1538.2z M234.9,1538.2c-1-0.5-2.9-2.6-3.9-4.2l-13.7,2.1c-2,1.6-0.5,4.2,0,6.3
				c3.9,4.2,11.3,7.9,18.1,8.9c0.5,0,1.5,0,3.4-0.5L234.9,1538.2L234.9,1538.2z M408.6,1564.9c-7.3-7.4-17.6,0-25.9,0.5
				c0,3.2-2,4.2-3.9,5.3c1.5,5.3,8.8,1.6,12.7,5.3h19.6C412.1,1572.8,410.1,1567.5,408.6,1564.9L408.6,1564.9z M408.6,1564.9
				c-7.3-7.4-17.6,0-25.9,0.5c0,3.2-2,4.2-3.9,5.3c1.5,5.3,8.8,1.6,12.7,5.3h19.6C412.1,1572.8,410.1,1567.5,408.6,1564.9
				L408.6,1564.9z M234.9,1538.2c-1-0.5-2.9-2.6-3.9-4.2l-13.7,2.1c-2,1.6-0.5,4.2,0,6.3c3.9,4.2,11.3,7.9,18.1,8.9
				c0.5,0,1.5,0,3.4-0.5L234.9,1538.2L234.9,1538.2z M234.9,1538.2c-1-0.5-2.9-2.6-3.9-4.2l-13.7,2.1c-2,1.6-0.5,4.2,0,6.3
				c3.9,4.2,11.3,7.9,18.1,8.9c0.5,0,1.5,0,3.4-0.5L234.9,1538.2L234.9,1538.2z M408.6,1564.9c-7.3-7.4-17.6,0-25.9,0.5
				c0,3.2-2,4.2-3.9,5.3c1.5,5.3,8.8,1.6,12.7,5.3h19.6C412.1,1572.8,410.1,1567.5,408.6,1564.9L408.6,1564.9z M408.6,1564.9
				c-7.3-7.4-17.6,0-25.9,0.5c0,3.2-2,4.2-3.9,5.3c1.5,5.3,8.8,1.6,12.7,5.3h19.6C412.1,1572.8,410.1,1567.5,408.6,1564.9
				L408.6,1564.9z M231,1533.9l-13.7,2.1c-2,1.6-0.5,4.2,0,6.3c3.9,4.2,11.3,7.9,18.1,8.9c0.5,0,1.5,0,3.4-0.5l-3.9-12.6
				C233.9,1537.6,232,1535.5,231,1533.9L231,1533.9z M1294.8,1425.3c-0.5-10-2.4-18.9-6.9-26.2c-12.2-13.1-33.7-21.5-52.8-15.2
				c-13.7,5.2-22.5,14.7-27.9,25.7c-6.9,25.7,19.1,39.9,13.2,65.6c-64.6,23.1-135.5,18.9-202.6,35.2c-57.7,6.8-112.1,31-152.2,61.9
				c-13.2,0-27.4-6.8-41.1-7.3c-56.3-5.3-110.6-5.8-165.9-3.7c-41.6,2.1-71.4,5.3-118.9,9.5c-95.4-68.8-232.4-67.2-346-85.6
				c0-24.7,24-49.3,8.3-75.6c-13.2-16.8-38.2-18.9-55.3-16.8c-14.7,6.3-22.5,17.3-26.4,32.5c0,37.3-29.8,73-15.2,108.2
				c25.4,34.1,69.5,44.6,110.1,56.2c58.7,8.9,117,3.7,174.7,16.8c34.7,7.4,70,22,95.4,41.5c-1.5,18.4-11.7,39.4-6.4,57.2l5.4,7.4
				l15.7,2.6c41.1,2.1,68-29.4,95.4-56.1c29.8-26.8,75.9-7.9,112-15.2c37.7,0.5,72.4,4.2,109.1,7.4c26.4,27.3,54.8,58.8,96.9,60.9
				c9.8-2.1,15.2-5.8,18.6-11c5.4-21,0-41.5-3.4-63c105.7-74,255.9-24.1,363.6-99.2C1313.9,1504,1299.2,1462.5,1294.8,1425.3
				L1294.8,1425.3z M441.4,1529.7l9.8,10l-10.3,11l-9.8-10L441.4,1529.7L441.4,1529.7z M411.1,1522.4l9.8,10l-10.3,11l-9.8-10
				L411.1,1522.4z M157.6,1425.3c-4.4,13.1,2.5,31-7.8,40.4c-1.5,0.5-2.9,0.5-3.4,0.5c-1-0.4-1.6-0.5-2-0.5
				c-4.9-7.4-11.3-13.1-12.2-24.1c-3.4-13.1,2-27.8,10.8-34.1c2,0,2.5-1.1,5.4-2.1c14.7-6.3,31.8,0.5,42.6,9.5
				c1.5,5.8,2.5,12.1,0,15.7c-2,2.1-4.4,2.1-8.8,3.1c-7.4,0-12.7-4.7-16.2-9.4C163,1423.2,159.1,1423.2,157.6,1425.3L157.6,1425.3z
				 M172.8,1446.8l19.1,1.6l-10.7,31c-1.5,1.1-3,1.1-3.4,1.1l-15.2-7.4L172.8,1446.8z M397.9,1592.7c-67.5-5.3-138-8.4-160.5-35.7
				c-3.9,5.8-28.9-3.1-28.9-3.1l-29.3,8.4l-3-6.3l28.4-15.7c8.8-18.9,11.2-18.4,29.3-16.3c46,42.5,52.4,46.7,126.3,50.4
				c24.9-15.2,21-30.4,23-56.1c1.5-1.6,7.3,5.2,7.8,6.8c0,1-2.5,25.7,6.9,25.7c23.5-0.5,30.3,17.8,23.5,32c30.8,0,27.9,0,27.4-28.9
				c2-2.1,8.3-14.2,8.8-14.7l3,40.4C465.4,1601.7,431.1,1595.9,397.9,1592.7L397.9,1592.7z M760,1563.3l9.8,10l-10.3,11l-9.8-10
				L760,1563.3L760,1563.3z M736.5,1563.9l9.8,10l-10.3,11l-9.8-10L736.5,1563.9L736.5,1563.9z M502.6,1704.6l-11.8-4.7
				c-2-3.1-2-5.8-1.5-11c10.3-18.9,33.3-22,52.3-31.5c15.2-2.1,31.8-8.9,44.1-5.8C561.3,1678.3,538.3,1704.6,502.6,1704.6
				L502.6,1704.6z M616.6,1617.4c-0.5,1.1,0,7.4-4.4,10.5c-9.8,6.3-31.8,10.5-31.8,5.3c-4.4,2.1-6.4-12.6,19.6-18.9
				c-4.9-3.7-19.1-17.8-11.7-24.1C594.1,1589.6,621,1607.9,616.6,1617.4L616.6,1617.4z M781,1613.7c1,3.7-1,7.4-2.5,9.5
				c-46.5-1.6-95.9,4.2-141.4,3.1c-12.2-10-15.2-38.9-15.7-53.5c-0.5-10,9.3,2.1,8.3-2.1c2.5,8.4,5.9,33.1,9.3,41.5
				c29.8,7.9,63.1,1.6,92-1.6c0-3.7-5.9-2.6-5.9-6.3l4.4-8.4l52.4-16.3c7.4,18.4-24.5,16.8-36.2,24.7L781,1613.7L781,1613.7z
				 M814.8,1641c-13.2,0-15.2-18.4-12.7-56.1c-1-2.1-7.3-2.6-5.4-6.8c5.4-2.1,15.7-6.3,19.6-2.1C806,1632.6,819.2,1637.9,814.8,1641
				L814.8,1641z M903.4,1700.9c-23-4.7-54.3-25.2-67-45.7c29.9-0.5,46,10,73.9,20.5C929.8,1688.8,918,1703,903.4,1700.9
				L903.4,1700.9z M969.9,1543.9l9.8,10l-10.3,11l-9.8-10L969.9,1543.9L969.9,1543.9z M935.2,1557c17.1,40.4,72.4,27.3,57.7-24.7
				C1041.9,1607.9,938.6,1623.2,935.2,1557z M1172,1571.8l-9.8-10l10.3-11l9.8,10L1172,1571.8L1172,1571.8z M1193.5,1570.2l-9.8-10
				l10.3-11l9.8,10L1193.5,1570.2z M1208.7,1532.9c-22.5,19.9-47,19.9-74.9,13.6c-1,2.1-5.4,21.5-10.8,21.5
				c-6.9-2.1-15.2-6.3-16.2-16.8c-58.7,29.9-84.2,39.4-99.3-32l9.8-1c19.6,60.9,57.2,27.8,104.2,10.5c48,17.8,84.2-4.2,80.3-16.3
				C1199.9,1486.2,1214.1,1522.9,1208.7,1532.9L1208.7,1532.9z M1247.9,1549.2c-7.8,4.7-13.7-12.6-21.5-48.3c-1.5-1.6-4.9,0-4.9-4.7
				c2.5-3.7,7.4-11,10.8-8.4C1240.5,1543.4,1249.8,1543.9,1247.9,1549.2z M1252.8,1461.5l-19.6,7.9h-1.5l-1.9-27.3l17.6-5.8
				l7.3,22.6C1254.2,1460.4,1253.7,1460.4,1252.8,1461.5z M1271.3,1449.4l-2,1.1l-1.5-1.1l-11.8-28.9c-1.5-1.6-3.4-2.1-4.9-2.1
				l-9.8,6.8l-13.2,3.7c-3.9-2.1-7.3-2.6-9.3-5.8c-1-2.1-1-2.6,0-6.3c2-11.6,10.3-18.4,21.5-22c14.2-4.2,28.9,3.7,40.1,15.2
				C1286,1422.1,1277.2,1441,1271.3,1449.4L1271.3,1449.4z M382.7,1565.4c0,3.2-2,4.2-3.9,5.3c1.5,5.3,8.8,1.6,12.7,5.3h19.6
				c1-3.2-1-8.4-2.5-11C401.3,1557.6,391,1564.9,382.7,1565.4L382.7,1565.4z M231,1533.9l-13.7,2.1c-2,1.6-0.5,4.2,0,6.3
				c3.9,4.2,11.3,7.9,18.1,8.9c0.5,0,1.5,0,3.4-0.5l-3.9-12.6C233.9,1537.6,232,1535.5,231,1533.9L231,1533.9z M234.9,1538.2
				c-1-0.5-2.9-2.6-3.9-4.2l-13.7,2.1c-2,1.6-0.5,4.2,0,6.3c3.9,4.2,11.3,7.9,18.1,8.9c0.5,0,1.5,0,3.4-0.5L234.9,1538.2
				L234.9,1538.2z M408.6,1564.9c-7.3-7.4-17.6,0-25.9,0.5c0,3.2-2,4.2-3.9,5.3c1.5,5.3,8.8,1.6,12.7,5.3h19.6
				C412.1,1572.8,410.1,1567.5,408.6,1564.9L408.6,1564.9z M408.6,1564.9c-7.3-7.4-17.6,0-25.9,0.5c0,3.2-2,4.2-3.9,5.3
				c1.5,5.3,8.8,1.6,12.7,5.3h19.6C412.1,1572.8,410.1,1567.5,408.6,1564.9L408.6,1564.9z M234.9,1538.2c-1-0.5-2.9-2.6-3.9-4.2
				l-13.7,2.1c-2,1.6-0.5,4.2,0,6.3c3.9,4.2,11.3,7.9,18.1,8.9c0.5,0,1.5,0,3.4-0.5L234.9,1538.2L234.9,1538.2z M234.9,1538.2
				c-1-0.5-2.9-2.6-3.9-4.2l-13.7,2.1c-2,1.6-0.5,4.2,0,6.3c3.9,4.2,11.3,7.9,18.1,8.9c0.5,0,1.5,0,3.4-0.5L234.9,1538.2
				L234.9,1538.2z M408.6,1564.9c-7.3-7.4-17.6,0-25.9,0.5c0,3.2-2,4.2-3.9,5.3c1.5,5.3,8.8,1.6,12.7,5.3h19.6
				C412.1,1572.8,410.1,1567.5,408.6,1564.9L408.6,1564.9z M408.6,1564.9c-7.3-7.4-17.6,0-25.9,0.5c0,3.2-2,4.2-3.9,5.3
				c1.5,5.3,8.8,1.6,12.7,5.3h19.6C412.1,1572.8,410.1,1567.5,408.6,1564.9L408.6,1564.9z M234.9,1538.2c-1-0.5-2.9-2.6-3.9-4.2
				l-13.7,2.1c-2,1.6-0.5,4.2,0,6.3c3.9,4.2,11.3,7.9,18.1,8.9c0.5,0,1.5,0,3.4-0.5L234.9,1538.2L234.9,1538.2z M234.9,1538.2
				c-1-0.5-2.9-2.6-3.9-4.2l-13.7,2.1c-2,1.6-0.5,4.2,0,6.3c3.9,4.2,11.3,7.9,18.1,8.9c0.5,0,1.5,0,3.4-0.5L234.9,1538.2
				L234.9,1538.2z M408.6,1564.9c-7.3-7.4-17.6,0-25.9,0.5c0,3.2-2,4.2-3.9,5.3c1.5,5.3,8.8,1.6,12.7,5.3h19.6
				C412.1,1572.8,410.1,1567.5,408.6,1564.9L408.6,1564.9z M408.6,1564.9c-7.3-7.4-17.6,0-25.9,0.5c0,3.2-2,4.2-3.9,5.3
				c1.5,5.3,8.8,1.6,12.7,5.3h19.6C412.1,1572.8,410.1,1567.5,408.6,1564.9L408.6,1564.9z M234.9,1538.2c-1-0.5-2.9-2.6-3.9-4.2
				l-13.7,2.1c-2,1.6-0.5,4.2,0,6.3c3.9,4.2,11.3,7.9,18.1,8.9c0.5,0,1.5,0,3.4-0.5L234.9,1538.2L234.9,1538.2z"/>
			<polygon class="st0" points="608,1009.9 607.8,1010.4 607.4,1010.3 607.2,1009.6 			"/>
			<path class="st0" d="M1048,780.6l44.2-1.8l-1-26.3l-42.8,1.7c-0.2-9.1-0.7-18.1-1.6-26.9l42.2-8.2l-5.1-25.8l-40.7,8
				c-1.6-9-3.5-17.9-5.7-26.6l39.1-14.1l-8.9-24.7l-37.8,13.6c-2.9-8.7-6.2-17.2-9.8-25.6l35.3-19.3l-12.6-23.1l-34.1,18.6
				c-4.3-8.2-8.9-16.2-13.7-23.9l31-23.7l-16-20.9l-29.8,22.8c-5.5-7.5-11.3-14.7-17.4-21.7l26.1-27.2l-19-18.2l-25.2,26.2
				c-6.6-6.6-13.5-12.9-20.6-18.9l21-29.9l-21.5-15.1l-20.2,28.7c-7.6-5.5-15.4-10.7-23.4-15.6l15.7-31.7l-23.6-11.7L857,449.8
				c-8.4-4.3-17-8.2-25.7-11.8l10.3-32.7l-25.1-7.9l-10,31.6c-9-2.9-18.1-5.5-27.4-7.7l5.1-33.1l-26-4l-4.9,32
				c-9.3-1.5-18.8-2.6-28.3-3.3v-32.9h-26.3v31.9h-0.6c-10.1,0-20.1,0.4-30,1.3l-5.1-32l-26,4.2l5,31.1c-9.5,1.5-18.8,3.4-28.1,5.7
				l-9.9-30.6l-25.1,8.1l9.6,29.8c-9.1,3-18.1,6.4-26.8,10.1l-14.4-28.7l-23.5,11.8l14.1,28.1c-8.5,4.4-16.8,9.1-24.9,14.1
				l-18.7-26.3l-21.5,15.2l18.4,25.8c-7.7,5.6-15.2,11.6-22.4,17.8L446,473.7l-18.9,18.4l22.5,23.1c-6.7,6.7-13.1,13.7-19.3,21
				l-26.6-20.1l-15.9,21l26.2,19.8c-5.5,7.7-10.8,15.5-15.7,23.6l-30-16.1l-12.5,23.2l29.7,15.9c-4.3,8.4-8.2,17-11.8,25.7
				l-32.9-11.7l-8.8,24.8l32.6,11.6c-2.9,8.9-5.4,17.9-7.6,27.1l-35.4-6.7l-4.9,25.9l35.2,6.7c-1.5,9.1-2.6,18.4-3.3,27.7l-37.3-1.3
				l-0.9,26.3l37.1,1.3c0,0.5,0,0.9,0,1.4c0,8.9,0.3,17.6,1,26.3l-38.2,4.6l3.1,26.1l38.1-4.6c1.4,9.1,3.1,18.2,5.2,27l-38.3,10.7
				l7.1,25.4l38.1-10.6c2.7,8.7,5.8,17.3,9.2,25.7l-37.4,17l10.9,24l37.3-16.9c4,8.1,8.3,16.1,12.9,23.9L361,964l14.4,22l35.4-23.1
				c5.2,7.4,10.6,14.5,16.3,21.4l-32.6,29.3l17.6,19.6l32.5-29.1c6.2,6.4,12.5,12.7,19.2,18.6l-28.5,34.9l20.4,16.7l28.4-34.7
				c7,5.4,14.2,10.6,21.6,15.4l-23.4,39.8l22.6,13.4l23.3-39.5c7.7,4.3,15.5,8.3,23.6,12l-17.5,43.8l24.4,9.8l17.3-43.4
				c8.2,3,16.5,5.8,24.9,8.2l-10.8,46.7l25.6,5.9l10.7-46.3c8.5,1.8,17.1,3.2,25.8,4.4l-3.6,48.6l26.2,2l3.6-48.1
				c6.6,0.4,13.2,0.6,19.9,0.6c2.1,0,4.1,0,6.2-0.1l3.9,49.1l26.2-2.1l-3.9-48.5c8.7-0.8,17.3-1.9,25.8-3.3l11.4,48.3l25.6-6.1
				l-11.2-47.5c8.5-2.1,16.8-4.5,25-7.1l18.7,46l24.4-9.9l-18.4-45.3c8-3.3,15.9-6.9,23.6-10.8l25.5,42.6l22.6-13.5l-25-41.8
				c7.4-4.5,14.7-9.2,21.8-14.2l31.5,38.1l20.2-16.8l-30.9-37.3c6.7-5.5,13.2-11.3,19.5-17.3l36.7,32.5l17.5-19.7L959,996.2
				c5.8-6.5,11.4-13.2,16.8-20.1l40.6,26.2l14.2-22.1L991,954.6c4.8-7.3,9.4-14.8,13.6-22.5l43.4,19.3l10.7-24l-42.2-18.8
				c3.7-8,7.1-16.1,10.1-24.4l44.9,12.2l6.9-25.4l-43.6-11.9c2.4-8.5,4.6-17.1,6.4-25.8l45.1,5.1l3-26.1l-43.8-5
				C1046.8,798.5,1047.6,789.6,1048,780.6L1048,780.6z M1005.6,782.3c-0.4,6.8-1.1,13.6-2,20.2c-1.1,8.8-2.7,17.4-4.5,25.9
				c-1.4,6.6-3.1,13.1-5,19.5c-2.5,8.5-5.3,16.8-8.4,25c-2.4,6.2-5,12.4-7.8,18.4c-3.7,8-7.7,15.8-12.1,23.4
				c-3.3,5.8-6.7,11.4-10.4,16.9c-4.8,7.3-10,14.5-15.4,21.3c-4.1,5.2-8.3,10.2-12.7,15.1c-5.9,6.5-12,12.8-18.4,18.8
				c-4.8,4.5-9.7,8.8-14.7,13c-6.8,5.6-13.8,10.9-21,15.9c-5.4,3.7-10.8,7.2-16.4,10.6c-7.5,4.5-15.2,8.7-23.1,12.6
				c-5.8,2.9-11.8,5.6-17.8,8.1c-8.1,3.3-16.3,6.3-24.7,9c-6.2,2-12.4,3.7-18.8,5.3c-8.5,2.1-17.1,3.8-25.8,5.2
				c-6.4,1-12.9,1.8-19.4,2.4c-8.7,0.8-17.4,1.3-26.3,1.3c-0.9,0-1.9,0-2.8,0c-5.6,0-11.2-0.1-16.8-0.4c-8.8-0.5-17.6-1.3-26.2-2.5
				c-6.5-0.9-13-2-19.4-3.3c-8.6-1.8-17.2-3.9-25.5-6.4c-6.3-1.9-12.6-4-18.8-6.2c-8.3-3-16.4-6.4-24.3-10.2c-6-2.8-12-5.9-17.8-9.1
				c-7.7-4.2-15.2-8.8-22.5-13.7c-5.6-3.7-11-7.6-16.3-11.7c-7-5.3-13.7-11-20.2-16.9c-5-4.6-9.8-9.3-14.5-14.1
				c-6.1-6.3-11.9-12.9-17.4-19.7c-4.3-5.3-8.4-10.7-12.3-16.3c-5.1-7.2-9.8-14.5-14.2-22.1c-3.5-5.9-6.8-12-9.8-18.2
				c-3.9-7.8-7.5-15.8-10.7-24c-2.5-6.4-4.9-13-7-19.7c-2.6-8.3-5-16.8-6.9-25.4c-1.5-6.8-2.8-13.7-3.9-20.7
				c-1.3-8.6-2.3-17.3-2.9-26.1c-0.5-7-0.7-14.1-0.7-21.3v-0.1c0-8.8,0.4-17.6,1.1-26.2c0.6-7.2,1.5-14.3,2.5-21.3
				c1.4-8.7,3.1-17.3,5.1-25.8c1.7-7,3.7-14,5.9-20.8c2.7-8.4,5.7-16.6,9.1-24.7c2.8-6.7,5.9-13.3,9.1-19.8c4-7.9,8.2-15.5,12.8-23
				c3.8-6.2,7.9-12.3,12.2-18.2c5.1-7.1,10.6-14,16.3-20.7c4.8-5.6,9.8-11,14.9-16.2c6.2-6.2,12.6-12.2,19.3-17.9
				c5.6-4.8,11.4-9.4,17.3-13.7c7.1-5.2,14.4-10.1,21.9-14.7c6.3-3.9,12.7-7.5,19.3-10.9c7.8-4,15.7-7.7,23.9-11.1
				c6.8-2.8,13.8-5.4,20.8-7.7c8.3-2.7,16.7-5.1,25.3-7.2c7.2-1.7,14.4-3.1,21.8-4.3c8.6-1.4,17.3-2.4,26.2-3.1
				c7.7-0.6,15.5-0.9,23.3-0.9h0.6c8.9,0,17.6,0.4,26.3,1.2c7.4,0.6,14.7,1.5,21.9,2.7c8.7,1.4,17.3,3.1,25.8,5.3
				c7.1,1.8,14.2,3.8,21.1,6.1c8.4,2.7,16.6,5.8,24.7,9.2c6.7,2.9,13.3,5.9,19.8,9.3c7.8,4,15.5,8.3,22.9,13
				c6.1,3.8,12.1,7.9,18,12.1c7.1,5.2,14,10.6,20.6,16.4c5.4,4.7,10.7,9.6,15.7,14.6c6.2,6.2,12.2,12.7,17.9,19.4
				c4.6,5.4,9,11,13.2,16.7c5.2,7.1,10.1,14.4,14.7,21.9c3.7,6,7.1,12.1,10.4,18.4c4.1,7.8,7.8,15.7,11.2,23.9
				c2.7,6.4,5.1,13,7.4,19.6c2.8,8.3,5.2,16.7,7.3,25.3c1.6,6.7,3,13.4,4.2,20.3c1.5,8.6,2.6,17.3,3.4,26.1
				c0.6,6.8,0.9,13.6,1.1,20.5c0,2.1,0.1,4.2,0.1,6.2C1006.3,769,1006.1,775.7,1005.6,782.3L1005.6,782.3z"/>
			<path class="st0" d="M607.2,1009.6l0.2,0.7l0.4,0l0.2-0.4L607.2,1009.6L607.2,1009.6z M607.2,1009.6l0.2,0.7l0.4,0l0.2-0.4
				L607.2,1009.6L607.2,1009.6z M607.2,1009.6l0.2,0.7l0.4,0l0.2-0.4L607.2,1009.6L607.2,1009.6z M607.2,1009.6l0.2,0.7l0.4,0
				l0.2-0.4L607.2,1009.6L607.2,1009.6z M607.2,1009.6l0.2,0.7l0.4,0l0.2-0.4L607.2,1009.6L607.2,1009.6z M607.2,1009.6l0.2,0.7
				l0.4,0l0.2-0.4L607.2,1009.6L607.2,1009.6z M607.2,1009.6l0.2,0.7l0.4,0l0.2-0.4L607.2,1009.6L607.2,1009.6z M607.2,1009.6
				l0.2,0.7l0.4,0l0.2-0.4L607.2,1009.6L607.2,1009.6z M607.2,1009.6l0.2,0.7l0.4,0l0.2-0.4L607.2,1009.6L607.2,1009.6z
				 M607.2,1009.6l0.2,0.7l0.4,0l0.2-0.4L607.2,1009.6L607.2,1009.6z M607.2,1009.6l0.2,0.7l0.4,0l0.2-0.4L607.2,1009.6
				L607.2,1009.6z M607.2,1009.6l0.2,0.7l0.4,0l0.2-0.4L607.2,1009.6L607.2,1009.6z M607.2,1009.6l0.2,0.7l0.4,0l0.2-0.4
				L607.2,1009.6L607.2,1009.6z M607.2,1009.6l0.2,0.7l0.4,0l0.2-0.4L607.2,1009.6L607.2,1009.6z M607.2,1009.6l0.2,0.7l0.4,0
				l0.2-0.4L607.2,1009.6L607.2,1009.6z M607.2,1009.6l0.2,0.7l0.4,0l0.2-0.4L607.2,1009.6L607.2,1009.6z M607.2,1009.6l0.2,0.7
				l0.4,0l0.2-0.4L607.2,1009.6L607.2,1009.6z"/>
			<polygon class="st0" points="608,1009.9 607.8,1010.4 607.4,1010.3 607.2,1009.6 			"/>
			<path class="st0" d="M644.8,500.2v513.2l-37-3l0.2-0.4l-0.8-0.3L497.3,669.9c-35.5,85.3-17.7,160.2,30.3,229.3H469
				c-0.8-1.4-1.5-2.9-2.3-4.3c-2.2-4.3-4.3-8.6-6.3-12.8c-3.8-8.2-7.2-16.3-10.1-24.3c-1.7-4.5-3.2-9.1-4.6-13.5v0
				c-2.7-8.6-4.9-17.1-6.6-25.5c-1-4.8-1.8-9.5-2.5-14.2c-1.3-8.8-2.1-17.5-2.5-26.2c-0.2-4.9-0.3-9.8-0.2-14.6
				c0.1-8.8,0.8-17.6,1.8-26.2c0.6-4.8,1.3-9.7,2.2-14.5c1.5-8.6,3.5-17.2,5.8-25.7c1.3-4.7,2.7-9.4,4.2-14
				c2.7-8.3,5.8-16.5,9.1-24.7c1.9-4.5,3.8-9.1,5.9-13.6c2.9-6.3,5.9-12.5,9.1-18.7h54.5l78.8,259.6l1-355.6l0-2.2v0l0.1-18l7.6-2
				l25.5-6.7L644.8,500.2L644.8,500.2z"/>
			<polygon class="st0" points="608,1009.9 607.8,1010.4 607.4,1010.3 607.2,1009.6 			"/>
			<path class="st0" d="M968.5,783.8c-0.3,4.8-0.7,9.7-1.3,14.6c-1,8.6-2.4,17.2-4.4,26c-1,4.7-2.2,9.4-3.6,14.1
				c-2.3,8.2-5.1,16.6-8.3,25c-1.7,4.4-3.5,8.9-5.5,13.4c-3.4,7.8-7.2,15.7-11.5,23.7c-0.1,0.2-0.2,0.4-0.3,0.6h-58.6
				c27.9-40.2,43.4-79.2,47.1-117.9H792.4v225.2l-38.2,9.7v-517l12.2,2.9l15.3,3.6l10.8,2.5v236.2h129.8
				c-3.7-39.2-19.3-78.2-46.1-117.9h54.5c1.9,3.7,3.8,7.4,5.5,11.1c3.9,8,7.4,16,10.7,24.1c1.8,4.6,3.6,9.1,5.2,13.7
				c3,8.3,5.6,16.7,7.8,25.2c1.2,4.7,2.4,9.5,3.4,14.2c1.8,8.6,3.2,17.3,4.1,26c0.5,4.8,0.9,9.7,1.2,14.6
				C969,766.1,969,774.9,968.5,783.8z"/>
			<rect x="681.4" y="500.2" class="st1" width="38.3" height="513.2"/>
		</g>
		<g>
			<g>
				<path class="st1" d="M1540.3,802.7V537.8h52l108.4,176.9V537.8h49.7v264.9h-53.7L1590,630v172.7L1540.3,802.7L1540.3,802.7z"/>
				<path class="st1" d="M2021.4,802.7h-58.2l-23.1-60.2h-105.9l-21.9,60.2h-56.7l103.2-264.9h56.5L2021.4,802.7L2021.4,802.7z
					 M1922.9,697.9l-36.5-98.3l-35.8,98.3H1922.9z"/>
				<path class="st1" d="M2057.5,802.7v-220h-78.6v-44.8h210.5v44.8H2111v220L2057.5,802.7L2057.5,802.7z"/>
				<path class="st1" d="M2197.9,802.7V537.8h53.5v264.9L2197.9,802.7L2197.9,802.7z"/>
				<path class="st1" d="M2267,671.9c0-27,4-49.6,12.1-67.9c6-13.5,14.2-25.6,24.7-36.3c10.4-10.7,21.8-18.7,34.2-23.8
					c16.5-7,35.5-10.5,57.1-10.5c39,0,70.2,12.1,93.7,36.3c23.4,24.2,35.1,57.9,35.1,101c0,42.8-11.6,76.2-34.9,100.4
					c-23.2,24.1-54.3,36.2-93.2,36.2c-39.4,0-70.7-12-93.9-36C2278.6,747.1,2267,714,2267,671.9L2267,671.9z M2322.1,670.1
					c0,30,6.9,52.7,20.8,68.2c13.8,15.5,31.4,23.2,52.8,23.2s38.8-7.7,52.5-23c13.7-15.4,20.5-38.4,20.5-69.1c0-30.4-6.7-53-20-67.9
					c-13.3-14.9-31-22.4-53-22.4s-39.8,7.6-53.3,22.7C2328.9,616.8,2322.1,639.6,2322.1,670.1L2322.1,670.1z"/>
				<path class="st1" d="M2541.8,802.7V537.8h52l108.4,176.9V537.8h49.7v264.9h-53.7L2591.5,630v172.7L2541.8,802.7L2541.8,802.7z"
					/>
				<path class="st1" d="M3022.9,802.7h-58.2l-23.1-60.2h-105.9l-21.9,60.2h-56.7l103.2-264.9h56.5L3022.9,802.7L3022.9,802.7z
					 M2924.4,697.9l-36.5-98.3l-35.8,98.3H2924.4z"/>
				<path class="st1" d="M3028.2,802.7V540h53.5v218.1h133v44.6H3028.2z"/>
				<path class="st1" d="M3298.5,802.7V537.8h53.5v264.9L3298.5,802.7L3298.5,802.7z"/>
				<path class="st1" d="M3379,802.7V537.8h52l108.4,176.9V537.8h49.7v264.9h-53.7L3428.7,630v172.7L3379,802.7L3379,802.7z"/>
				<path class="st1" d="M3607.7,716.5l52-5.1c3.1,17.5,9.5,30.3,19.1,38.5c9.6,8.2,22.5,12.3,38.8,12.3c17.2,0,30.2-3.6,38.9-10.9
					c8.7-7.3,13.1-15.8,13.1-25.6c0-6.3-1.8-11.6-5.5-16c-3.7-4.4-10.1-8.2-19.2-11.5c-6.3-2.2-20.5-6-42.8-11.6
					c-28.7-7.1-48.8-15.8-60.3-26.2c-16.3-14.6-24.4-32.3-24.4-53.3c0-13.5,3.8-26.1,11.5-37.8c7.6-11.7,18.7-20.7,33.1-26.8
					c14.4-6.1,31.8-9.2,52.1-9.2c33.2,0,58.3,7.3,75.1,21.9c16.8,14.6,25.6,34,26.5,58.4l-53.5,2.3c-2.3-13.6-7.2-23.4-14.7-29.4
					c-7.5-6-18.8-8.9-33.9-8.9c-15.5,0-27.7,3.2-36.5,9.6c-5.7,4.1-8.5,9.6-8.5,16.4c0,6.3,2.6,11.6,7.9,16.1
					c6.7,5.7,23.1,11.6,49.1,17.7s45.3,12.5,57.7,19.1c12.5,6.6,22.2,15.5,29.3,26.9c7,11.4,10.6,25.4,10.6,42.2
					c0,15.2-4.2,29.4-12.6,42.6c-8.4,13.2-20.4,23.1-35.8,29.5c-15.4,6.4-34.6,9.7-57.6,9.7c-33.5,0-59.2-7.7-77.1-23.2
					C3621.9,768.7,3611.2,746.1,3607.7,716.5z"/>
				<path class="st1" d="M3903.2,802.7v-220h-78.6v-44.8h210.5v44.8h-78.4v220L3903.2,802.7L3903.2,802.7z"/>
				<path class="st1" d="M4043.6,802.7V537.8h53.5v264.9L4043.6,802.7L4043.6,802.7z"/>
				<path class="st1" d="M4183.2,802.7v-220h-78.6v-44.8h210.5v44.8h-78.4v220L4183.2,802.7L4183.2,802.7z"/>
				<path class="st1" d="M4324.8,537.8h53.5v143.4c0,22.8,0.7,37.5,2,44.3c2.3,10.8,7.7,19.5,16.3,26.1c8.6,6.6,20.4,9.8,35.3,9.8
					c15.2,0,26.6-3.1,34.3-9.3c7.7-6.2,12.3-13.8,13.9-22.9c1.6-9,2.3-24,2.3-45V537.8h53.5v139.1c0,31.8-1.4,54.3-4.3,67.4
					c-2.9,13.1-8.2,24.2-16,33.2c-7.8,9-18.2,16.2-31.2,21.6s-30,8-50.9,8c-25.3,0-44.5-2.9-57.5-8.8c-13.1-5.8-23.4-13.4-31-22.8
					c-7.6-9.3-12.6-19.1-15-29.4c-3.5-15.2-5.2-37.6-5.2-67.2V537.8L4324.8,537.8z"/>
				<path class="st1" d="M4627.6,802.7v-220H4549v-44.8h210.5v44.8H4681v220L4627.6,802.7L4627.6,802.7z"/>
				<path class="st1" d="M4769.5,802.7V537.8h196.4v44.8H4823v58.7h133V686h-133v72.1h148v44.6L4769.5,802.7L4769.5,802.7z"/>
				<path class="st1" d="M4978.4,716.5l52-5.1c3.1,17.5,9.5,30.3,19.1,38.5c9.6,8.2,22.5,12.3,38.8,12.3c17.2,0,30.2-3.6,38.9-10.9
					c8.7-7.3,13.1-15.8,13.1-25.6c0-6.3-1.8-11.6-5.5-16c-3.7-4.4-10.1-8.2-19.2-11.5c-6.3-2.2-20.5-6-42.8-11.6
					c-28.7-7.1-48.8-15.8-60.3-26.2c-16.3-14.6-24.4-32.3-24.4-53.3c0-13.5,3.8-26.1,11.5-37.8c7.6-11.7,18.7-20.7,33.1-26.8
					c14.4-6.1,31.8-9.2,52.1-9.2c33.2,0,58.3,7.3,75.1,21.9c16.8,14.6,25.6,34,26.5,58.4l-53.5,2.3c-2.3-13.6-7.2-23.4-14.7-29.4
					c-7.5-6-18.8-8.9-33.9-8.9c-15.5,0-27.7,3.2-36.5,9.6c-5.7,4.1-8.5,9.6-8.5,16.4c0,6.3,2.6,11.6,7.9,16.1
					c6.7,5.7,23.1,11.6,49.1,17.7s45.3,12.5,57.7,19.1c12.5,6.6,22.2,15.5,29.3,26.9c7,11.4,10.6,25.4,10.6,42.2
					c0,15.2-4.2,29.4-12.6,42.6c-8.4,13.2-20.4,23.1-35.8,29.5c-15.4,6.4-34.6,9.7-57.6,9.7c-33.5,0-59.2-7.7-77.1-23.2
					C4992.6,768.7,4981.8,746.1,4978.4,716.5z"/>
				<path class="st1" d="M5281.8,671.9c0-27,4-49.6,12.1-67.9c6-13.5,14.2-25.6,24.7-36.3c10.4-10.7,21.8-18.7,34.2-23.8
					c16.5-7,35.5-10.5,57.1-10.5c39,0,70.2,12.1,93.7,36.3c23.4,24.2,35.1,57.9,35.1,101c0,42.8-11.6,76.2-34.9,100.4
					c-23.2,24.1-54.3,36.2-93.2,36.2c-39.4,0-70.7-12-93.9-36C5293.4,747.1,5281.8,714,5281.8,671.9L5281.8,671.9z M5336.9,670.1
					c0,30,6.9,52.7,20.8,68.2c13.8,15.5,31.4,23.2,52.8,23.2s38.8-7.7,52.5-23c13.7-15.4,20.5-38.4,20.5-69.1c0-30.4-6.7-53-20-67.9
					c-13.3-14.9-31-22.4-53-22.4s-39.8,7.6-53.3,22.7C5343.7,616.8,5336.9,639.6,5336.9,670.1L5336.9,670.1z"/>
				<path class="st1" d="M5556.4,802.7V537.8H5738v44.8h-128.1v62.7h110.6v44.8h-110.6v112.6H5556.4z"/>
				<path class="st1" d="M5836.2,802.7V537.8h53.5v104.2h104.8V537.8h53.5v264.9h-53.5V686.9h-104.8v115.8L5836.2,802.7
					L5836.2,802.7z"/>
				<path class="st1" d="M6078.8,802.7V537.8h196.4v44.8h-142.9v58.7h133V686h-133v72.1h148v44.6L6078.8,802.7L6078.8,802.7z"/>
				<path class="st1" d="M6540,802.7h-58.2l-23.1-60.2h-105.9l-21.9,60.2h-56.7l103.2-264.9h56.5L6540,802.7L6540,802.7z
					 M6441.5,697.9l-36.5-98.3l-35.8,98.3H6441.5z"/>
				<path class="st1" d="M6545.4,802.7V540h53.5v218.1h133v44.6H6545.4z"/>
				<path class="st1" d="M6777.7,802.7v-220h-78.6v-44.8h210.5v44.8h-78.4v220L6777.7,802.7L6777.7,802.7z"/>
				<path class="st1" d="M6919.8,802.7V537.8h53.5v104.2h104.8V537.8h53.5v264.9h-53.5V686.9h-104.8v115.8L6919.8,802.7
					L6919.8,802.7z"/>
			</g>
			<g>
				<g>
					<path class="st1" d="M2740.6,1164.9v-143.2h18.9v143.2H2740.6z"/>
					<path class="st1" d="M2786.5,1119l17.9-1.6c0.8,7.2,2.8,13,5.9,17.6c3.1,4.6,7.9,8.3,14.4,11.1c6.5,2.8,13.8,4.2,22,4.2
						c7.2,0,13.6-1.1,19.1-3.2c5.5-2.1,9.7-5.1,12.4-8.8c2.7-3.7,4.1-7.8,4.1-12.3c0-4.5-1.3-8.4-3.9-11.8
						c-2.6-3.4-6.9-6.2-12.9-8.4c-3.8-1.5-12.3-3.8-25.5-7c-13.2-3.2-22.4-6.1-27.6-8.9c-6.8-3.6-11.9-8-15.3-13.3
						c-3.4-5.3-5-11.2-5-17.8c0-7.2,2.1-14,6.2-20.3c4.1-6.3,10.1-11.1,18-14.3c7.9-3.3,16.6-4.9,26.3-4.9c10.6,0,20,1.7,28.1,5.1
						s14.3,8.4,18.7,15.1c4.4,6.6,6.7,14.2,7,22.6l-18.2,1.4c-1-9-4.3-15.9-9.9-20.5c-5.6-4.6-14-6.9-25-6.9
						c-11.5,0-19.8,2.1-25,6.3c-5.2,4.2-7.9,9.3-7.9,15.2c0,5.1,1.9,9.4,5.6,12.7c3.6,3.3,13.2,6.7,28.6,10.2
						c15.4,3.5,26,6.5,31.7,9.1c8.3,3.8,14.5,8.7,18.5,14.6c4,5.9,6,12.7,6,20.4c0,7.6-2.2,14.8-6.5,21.5
						c-4.4,6.7-10.6,12-18.8,15.7c-8.2,3.7-17.4,5.6-27.6,5.6c-13,0-23.8-1.9-32.6-5.7c-8.8-3.8-15.6-9.5-20.6-17
						C2789.4,1137.1,2786.8,1128.5,2786.5,1119z"/>
					<path class="st1" d="M2925.6,1164.9v-143.2h18.9v126.3h70.5v16.9H2925.6z"/>
					<path class="st1" d="M3021.9,1164.9l55-143.2h20.4l58.6,143.2h-21.6l-16.7-43.4h-59.9l-15.7,43.4H3021.9z M3063.2,1106.2h48.5
						l-14.9-39.6c-4.6-12-7.9-21.9-10.2-29.7c-1.8,9.2-4.4,18.3-7.7,27.3L3063.2,1106.2z"/>
					<path class="st1" d="M3170.4,1164.9v-143.2h28.5l33.9,101.4c3.1,9.4,5.4,16.5,6.8,21.2c1.6-5.2,4.2-12.9,7.6-22.9l34.3-99.6
						h25.5v143.2h-18.3v-119.8l-41.6,119.8h-17.1l-41.4-121.9v121.9H3170.4z"/>
					<path class="st1" d="M3340.8,1164.9v-143.2h18.9v143.2H3340.8z"/>
					<path class="st1" d="M3495.3,1114.8l18.9,4.8c-4,15.6-11.1,27.4-21.4,35.6c-10.3,8.2-22.9,12.3-37.8,12.3
						c-15.4,0-28-3.1-37.6-9.4c-9.7-6.3-17-15.4-22.1-27.3c-5-11.9-7.6-24.7-7.6-38.4c0-14.9,2.8-27.9,8.5-39
						c5.7-11.1,13.8-19.5,24.3-25.3c10.5-5.8,22.1-8.6,34.7-8.6c14.3,0,26.4,3.6,36.1,10.9c9.8,7.3,16.6,17.5,20.4,30.8l-18.7,4.4
						c-3.3-10.4-8.1-18-14.5-22.8c-6.3-4.8-14.3-7.1-23.8-7.1c-11,0-20.2,2.6-27.6,7.9c-7.4,5.3-12.6,12.4-15.6,21.2
						c-3,8.9-4.5,18.1-4.5,27.5c0,12.2,1.8,22.8,5.3,31.9c3.5,9.1,9.1,15.9,16.6,20.4c7.5,4.5,15.6,6.7,24.3,6.7
						c10.6,0,19.6-3.1,27-9.2C3487.7,1135.9,3492.7,1126.8,3495.3,1114.8z"/>
					<path class="st1" d="M3593.5,1164.9v-143.2h63.5c12.8,0,22.5,1.3,29.1,3.9c6.6,2.6,11.9,7.1,15.9,13.6c4,6.5,6,13.7,6,21.6
						c0,10.2-3.3,18.7-9.9,25.7c-6.6,7-16.7,11.4-30.5,13.3c5,2.4,8.8,4.8,11.4,7.1c5.5,5.1,10.8,11.4,15.7,19l24.9,39h-23.8
						l-18.9-29.8c-5.5-8.6-10.1-15.2-13.7-19.7c-3.6-4.6-6.8-7.7-9.6-9.6c-2.8-1.8-5.7-3.1-8.6-3.8c-2.1-0.5-5.7-0.7-10.5-0.7h-22
						v63.6H3593.5z M3612.4,1085h40.7c8.7,0,15.4-0.9,20.3-2.7c4.9-1.8,8.6-4.7,11.1-8.6c2.5-3.9,3.8-8.2,3.8-12.8
						c0-6.8-2.5-12.3-7.4-16.7c-4.9-4.4-12.7-6.5-23.3-6.5h-45.3V1085z"/>
					<path class="st1" d="M3738,1164.9v-143.2h103.5v16.9H3757v43.8h79.2v16.8H3757v48.7h87.9v16.9H3738z"/>
					<path class="st1" d="M3871,1164.9v-143.2h54c9.5,0,16.8,0.5,21.8,1.4c7,1.2,12.9,3.4,17.7,6.7c4.8,3.3,8.6,7.9,11.5,13.8
						c2.9,5.9,4.3,12.4,4.3,19.5c0,12.2-3.9,22.5-11.6,30.9c-7.7,8.4-21.7,12.6-42,12.6H3890v58.2H3871z M3890,1089.9h37
						c12.2,0,20.9-2.3,26.1-6.8c5.1-4.6,7.7-11,7.7-19.2c0-6-1.5-11.1-4.5-15.4c-3-4.3-7-7.1-12-8.4c-3.2-0.8-9.1-1.3-17.7-1.3H3890
						V1089.9z"/>
					<path class="st1" d="M4098.4,1021.8h18.9v82.7c0,14.4-1.6,25.8-4.9,34.3c-3.3,8.5-9.1,15.3-17.6,20.7c-8.5,5.3-19.6,8-33.4,8
						c-13.4,0-24.4-2.3-32.9-6.9c-8.5-4.6-14.6-11.3-18.3-20.1c-3.6-8.8-5.5-20.7-5.5-35.9v-82.7h18.9v82.6
						c0,12.4,1.2,21.6,3.5,27.5c2.3,5.9,6.3,10.4,11.9,13.6c5.6,3.2,12.5,4.8,20.7,4.8c13.9,0,23.9-3.2,29.8-9.5
						c5.9-6.3,8.9-18.5,8.9-36.4V1021.8L4098.4,1021.8z"/>
					<path class="st1" d="M4148.1,1164.9v-143.2h53.7c10.9,0,19.7,1.4,26.3,4.3c6.6,2.9,11.8,7.4,15.5,13.4c3.7,6,5.6,12.3,5.6,18.9
						c0,6.1-1.7,11.9-5,17.3c-3.3,5.4-8.3,9.8-15,13.1c8.7,2.5,15.3,6.9,20,13c4.7,6.1,7,13.3,7,21.7c0,6.7-1.4,12.9-4.2,18.7
						s-6.3,10.2-10.5,13.3c-4.2,3.1-9.4,5.5-15.7,7.1c-6.3,1.6-14,2.4-23.1,2.4H4148.1z M4167,1081.9h31c8.4,0,14.4-0.6,18.1-1.7
						c4.8-1.4,8.4-3.8,10.9-7.1s3.7-7.5,3.7-12.5c0-4.8-1.1-8.9-3.4-12.5c-2.3-3.6-5.5-6.1-9.8-7.4c-4.2-1.3-11.5-2-21.8-2H4167
						V1081.9z M4167,1148.1h35.6c6.1,0,10.4-0.2,12.9-0.7c4.4-0.8,8-2.1,10.9-3.9c2.9-1.8,5.3-4.5,7.2-8c1.9-3.5,2.8-7.5,2.8-12.1
						c0-5.3-1.4-10-4.1-13.9c-2.7-3.9-6.5-6.7-11.4-8.3c-4.9-1.6-11.8-2.4-20.9-2.4H4167V1148.1z"/>
					<path class="st1" d="M4281.5,1164.9v-143.2h18.9v126.3h70.5v16.9H4281.5z"/>
					<path class="st1" d="M4396.7,1164.9v-143.2h18.9v143.2H4396.7z"/>
					<path class="st1" d="M4551.2,1114.8l18.9,4.8c-4,15.6-11.1,27.4-21.4,35.6c-10.3,8.2-22.9,12.3-37.8,12.3
						c-15.4,0-28-3.1-37.6-9.4c-9.7-6.3-17-15.4-22.1-27.3c-5-11.9-7.6-24.7-7.6-38.4c0-14.9,2.8-27.9,8.5-39
						c5.7-11.1,13.8-19.5,24.3-25.3c10.5-5.8,22.1-8.6,34.7-8.6c14.3,0,26.4,3.6,36.1,10.9c9.8,7.3,16.6,17.5,20.4,30.8l-18.7,4.4
						c-3.3-10.4-8.1-18-14.5-22.8c-6.3-4.8-14.3-7.1-23.8-7.1c-11,0-20.2,2.6-27.6,7.9c-7.4,5.3-12.6,12.4-15.6,21.2
						c-3,8.9-4.5,18.1-4.5,27.5c0,12.2,1.8,22.8,5.3,31.9c3.5,9.1,9.1,15.9,16.6,20.4c7.5,4.5,15.6,6.7,24.3,6.7
						c10.6,0,19.6-3.1,27-9.2C4543.6,1135.9,4548.6,1126.8,4551.2,1114.8z"/>
					<path class="st1" d="M4643.3,1095.2c0-23.8,6.4-42.4,19.1-55.8c12.8-13.4,29.2-20.2,49.4-20.2c13.2,0,25.1,3.2,35.7,9.5
						c10.6,6.3,18.7,15.1,24.3,26.4c5.6,11.3,8.3,24.1,8.3,38.4c0,14.5-2.9,27.5-8.8,39c-5.9,11.5-14.2,20.1-24.9,26
						c-10.7,5.9-22.3,8.8-34.8,8.8c-13.5,0-25.5-3.3-36.1-9.8c-10.6-6.5-18.7-15.4-24.1-26.7
						C4646,1119.7,4643.3,1107.8,4643.3,1095.2z M4662.8,1095.5c0,17.3,4.6,30.8,13.9,40.8c9.3,9.9,20.9,14.9,34.9,14.9
						c14.3,0,26-5,35.2-15c9.2-10,13.8-24.3,13.8-42.7c0-11.7-2-21.8-5.9-30.5c-3.9-8.7-9.7-15.4-17.3-20.2
						c-7.6-4.8-16.1-7.2-25.5-7.2c-13.4,0-25,4.6-34.6,13.8C4667.6,1058.6,4662.8,1074,4662.8,1095.5z"/>
					<path class="st1" d="M4805.6,1164.9v-143.2h96.6v16.9h-77.6v44.3h67.2v16.9h-67.2v65H4805.6z"/>
					<path class="st1" d="M4982.3,1164.9v-143.2h54c9.5,0,16.8,0.5,21.8,1.4c7,1.2,12.9,3.4,17.7,6.7c4.8,3.3,8.6,7.9,11.5,13.8
						c2.9,5.9,4.3,12.4,4.3,19.5c0,12.2-3.9,22.5-11.6,30.9c-7.7,8.4-21.7,12.6-42,12.6h-36.7v58.2H4982.3z M5001.3,1089.9h37
						c12.2,0,20.9-2.3,26.1-6.8c5.1-4.6,7.7-11,7.7-19.2c0-6-1.5-11.1-4.5-15.4c-3-4.3-7-7.1-12-8.4c-3.2-0.8-9.1-1.3-17.7-1.3
						h-36.6V1089.9z"/>
					<path class="st1" d="M5085.2,1164.9l55-143.2h20.4l58.6,143.2h-21.6l-16.7-43.4H5121l-15.7,43.4H5085.2z M5126.5,1106.2h48.5
						l-14.9-39.6c-4.6-12-7.9-21.9-10.2-29.7c-1.8,9.2-4.4,18.3-7.7,27.3L5126.5,1106.2z"/>
					<path class="st1" d="M5233.5,1164.9v-143.2h18.9v71l71.1-71h25.7l-60.1,58l62.7,85.2h-25l-51-72.5l-23.4,22.9v49.6H5233.5z"/>
					<path class="st1" d="M5370.9,1164.9v-143.2h18.9v143.2H5370.9z"/>
					<path class="st1" d="M5416.8,1119l17.9-1.6c0.8,7.2,2.8,13,5.9,17.6c3.1,4.6,7.9,8.3,14.4,11.1c6.5,2.8,13.8,4.2,22,4.2
						c7.2,0,13.6-1.1,19.1-3.2c5.5-2.1,9.7-5.1,12.4-8.8c2.7-3.7,4.1-7.8,4.1-12.3c0-4.5-1.3-8.4-3.9-11.8
						c-2.6-3.4-6.9-6.2-12.9-8.4c-3.8-1.5-12.3-3.8-25.5-7c-13.2-3.2-22.4-6.1-27.6-8.9c-6.8-3.6-11.9-8-15.3-13.3
						c-3.4-5.3-5-11.2-5-17.8c0-7.2,2.1-14,6.2-20.3c4.1-6.3,10.1-11.1,18-14.3c7.9-3.3,16.6-4.9,26.3-4.9c10.6,0,20,1.7,28.1,5.1
						s14.3,8.4,18.7,15.1c4.4,6.6,6.7,14.2,7,22.6l-18.2,1.4c-1-9-4.3-15.9-9.9-20.5c-5.6-4.6-13.9-6.9-25-6.9
						c-11.5,0-19.8,2.1-25,6.3c-5.2,4.2-7.9,9.3-7.9,15.2c0,5.1,1.9,9.4,5.6,12.7c3.6,3.3,13.2,6.7,28.6,10.2
						c15.4,3.5,26,6.5,31.7,9.1c8.3,3.8,14.5,8.7,18.5,14.6c4,5.9,6,12.7,6,20.4c0,7.6-2.2,14.8-6.5,21.5
						c-4.4,6.7-10.6,12-18.8,15.7c-8.2,3.7-17.4,5.6-27.6,5.6c-13,0-23.8-1.9-32.6-5.7c-8.8-3.8-15.6-9.5-20.6-17
						C5419.7,1137.1,5417.1,1128.5,5416.8,1119z"/>
					<path class="st1" d="M5593.1,1164.9v-126.3h-47.2v-16.9h113.5v16.9H5612v126.3H5593.1z"/>
					<path class="st1" d="M5648.3,1164.9l55-143.2h20.4l58.6,143.2h-21.6l-16.7-43.4h-59.9l-15.7,43.4H5648.3z M5689.6,1106.2h48.5
						l-14.9-39.6c-4.6-12-7.9-21.9-10.2-29.7c-1.8,9.2-4.4,18.3-7.7,27.3L5689.6,1106.2z"/>
					<path class="st1" d="M5797.2,1164.9v-143.2h19.4l75.2,112.4v-112.4h18.2v143.2h-19.4l-75.2-112.5v112.5L5797.2,1164.9
						L5797.2,1164.9z"/>
				</g>
				<rect x="1528.4" y="1097.8" class="st1" width="1091" height="27.6"/>
				<rect x="6028.9" y="1097.8" class="st1" width="1091" height="27.6"/>
			</g>
		</g>
	</g>
</g>
</svg>
